<svg width="19" height="19" viewBox="0 0 19 19" fill="none" xmlns="http://www.w3.org/2000/svg">
<path d="M5.55028 12.8634C4.32559 12.5095 3.27869 10.4658 2.98531 9.22954C2.6646 7.87818 2.81026 6.56954 3.52183 5.41896C3.91206 4.78797 4.88045 3.91095 5.65549 4.03226C6.71479 4.19806 7.56801 6.08731 8.16069 6.91889C8.73502 7.72474 8.91105 4.9732 9.18075 4.49708C10.444 2.26692 12.4224 3.25518 13.323 5.13716C13.9829 6.51626 14.2521 6.99169 15.7326 7.43462C16.8113 7.75737 17.1582 8.86497 17.5433 9.91719C18.271 11.9055 16.0456 12.3997 14.9844 13.1858C14.7805 13.3369 14.8551 13.7405 14.8102 13.9611C14.6775 14.6121 14.266 15.1265 13.7846 15.5193C12.737 16.374 11.1915 17.0221 9.87434 17.1074C8.57673 17.1914 6.07371 16.3165 6.1355 14.4561C6.18042 13.1038 9.07562 11.7866 10.0369 11.3053C10.8635 10.8915 11.8438 10.5771 12.4623 9.86177" stroke="#9F9F9F" stroke-width="1.5" stroke-linecap="round"/>
<path d="M5.42487 12.9353C4.72731 13.1034 4.04215 13.3919 3.31903 13.437C2.83472 13.4671 2.3423 13.1917 1.89841 13.016C1.7585 12.9606 1.34098 12.7235 1.28052 13.0221C1.24064 13.219 1.35317 13.8339 1.4363 14.0224C1.77395 14.7878 1.94169 15.6587 2.88762 15.5399C3.85451 15.4185 4.88884 14.902 5.76399 14.4638" stroke="#9F9F9F" stroke-width="1.5" stroke-linecap="round"/>
</svg>
