<svg width="30" height="30" viewBox="0 0 30 30" fill="none" xmlns="http://www.w3.org/2000/svg">
<path d="M19.0444 10.6667C18.7828 10.2128 18.4026 9.83857 17.9446 9.58413C17.4866 9.32969 16.9681 9.20459 16.4444 9.22222H13.5556C12.7894 9.22222 12.0546 9.52659 11.5128 10.0684C10.971 10.6101 10.6667 11.3449 10.6667 12.1111C10.6667 12.8773 10.971 13.6121 11.5128 14.1539C12.0546 14.6956 12.7894 15 13.5556 15H16.4444C17.2106 15 17.9454 15.3044 18.4872 15.8461C19.029 16.3879 19.3333 17.1227 19.3333 17.8889C19.3333 18.6551 19.029 19.3899 18.4872 19.9316C17.9454 20.4734 17.2106 20.7778 16.4444 20.7778H13.5556C13.0319 20.7954 12.5134 20.6703 12.0554 20.4159C11.5974 20.1614 11.2172 19.7872 10.9556 19.3333M15 7.77778V22.2222M2 15C2 16.7072 2.33625 18.3977 2.98957 19.9749C3.64288 21.5521 4.60045 22.9852 5.80761 24.1924C7.01477 25.3995 8.44788 26.3571 10.0251 27.0104C11.6023 27.6637 13.2928 28 15 28C16.7072 28 18.3977 27.6637 19.9749 27.0104C21.5521 26.3571 22.9852 25.3995 24.1924 24.1924C25.3995 22.9852 26.3571 21.5521 27.0104 19.9749C27.6637 18.3977 28 16.7072 28 15C28 13.2928 27.6637 11.6023 27.0104 10.0251C26.3571 8.44788 25.3995 7.01477 24.1924 5.80761C22.9852 4.60045 21.5521 3.64288 19.9749 2.98957C18.3977 2.33626 16.7072 2 15 2C13.2928 2 11.6023 2.33626 10.0251 2.98957C8.44788 3.64288 7.01477 4.60045 5.80761 5.80761C4.60045 7.01477 3.64288 8.44788 2.98957 10.0251C2.33625 11.6023 2 13.2928 2 15Z" stroke="#FF9A15" stroke-width="3" stroke-linecap="round" stroke-linejoin="round"/>
</svg>
