<svg width="1320" height="200" viewBox="0 0 1320 200" fill="none" xmlns="http://www.w3.org/2000/svg">
<g clip-path="url(#clip0_560_4688)">
<rect width="1320" height="200" rx="8" fill="#FFE5BE"/>
<rect x="56.2123" y="53.2259" width="244.169" height="38.2703" rx="5.70697" stroke="black" stroke-width="0.522207"/>
<path d="M35.4503 152.266V141.284H36.8081V146.387H36.6141C36.8329 145.81 37.1861 145.372 37.6735 145.074C38.1608 144.776 38.7228 144.626 39.3594 144.626C40.2646 144.626 40.931 144.87 41.3587 145.358C41.7964 145.845 42.0152 146.581 42.0152 147.566V152.266H40.6575V147.64C40.6575 146.974 40.5282 146.492 40.2696 146.193C40.0109 145.885 39.5882 145.731 39.0013 145.731C38.3449 145.731 37.8127 145.934 37.4049 146.342C37.007 146.75 36.8081 147.292 36.8081 147.969V152.266H35.4503ZM46.9071 152.4C46.0019 152.4 45.3206 152.156 44.863 151.669C44.4154 151.181 44.1916 150.43 44.1916 149.416V144.761H45.5493V149.386C45.5493 150.043 45.6836 150.525 45.9522 150.833C46.2207 151.142 46.6385 151.296 47.2055 151.296C47.8222 151.296 48.3195 151.092 48.6975 150.684C49.0854 150.266 49.2794 149.714 49.2794 149.028V144.761H50.6371V152.266H49.3241V150.609H49.5181C49.3092 151.176 48.976 151.619 48.5184 151.937C48.0609 152.246 47.5238 152.4 46.9071 152.4ZM52.9055 152.266V146.596C52.9055 146.298 52.8955 145.994 52.8756 145.686C52.8657 145.368 52.8408 145.059 52.801 144.761H54.114L54.2781 146.641L54.0543 146.656C54.1538 146.198 54.3229 145.82 54.5616 145.522C54.8103 145.213 55.1037 144.99 55.4419 144.85C55.79 144.701 56.1481 144.626 56.5161 144.626C56.6753 144.626 56.8096 144.631 56.919 144.641C57.0284 144.651 57.1378 144.676 57.2472 144.716L57.2174 145.925C57.0682 145.865 56.9289 145.83 56.7996 145.82C56.6803 145.8 56.5311 145.79 56.352 145.79C55.9144 145.79 55.5364 145.89 55.2181 146.089C54.9097 146.288 54.671 146.551 54.5019 146.879C54.3428 147.208 54.2632 147.561 54.2632 147.939V152.266H52.9055ZM58.4277 152.266V146.596C58.4277 146.298 58.4177 145.994 58.3978 145.686C58.3879 145.368 58.363 145.059 58.3232 144.761H59.6362L59.8003 146.641L59.5765 146.656C59.676 146.198 59.8451 145.82 60.0838 145.522C60.3325 145.213 60.6259 144.99 60.9641 144.85C61.3122 144.701 61.6703 144.626 62.0384 144.626C62.1975 144.626 62.3318 144.631 62.4412 144.641C62.5506 144.651 62.66 144.676 62.7695 144.716L62.7396 145.925C62.5904 145.865 62.4512 145.83 62.3218 145.82C62.2025 145.8 62.0533 145.79 61.8742 145.79C61.4366 145.79 61.0586 145.89 60.7403 146.089C60.432 146.288 60.1932 146.551 60.0241 146.879C59.865 147.208 59.7854 147.561 59.7854 147.939V152.266H58.4277ZM64.1629 155.653L63.8495 154.548C64.317 154.439 64.705 154.31 65.0133 154.16C65.3217 154.021 65.5803 153.837 65.7892 153.608C65.998 153.38 66.1821 153.091 66.3412 152.743L66.7142 151.848L66.6844 152.415L63.4168 144.761H64.879L67.4901 151.191H67.1021L69.7132 144.761H71.1157L67.6691 152.848C67.4602 153.335 67.2314 153.743 66.9828 154.071C66.744 154.399 66.4805 154.668 66.192 154.877C65.9135 155.086 65.6051 155.25 65.267 155.369C64.9288 155.488 64.5607 155.583 64.1629 155.653ZM78.9913 152.4C78.0862 152.4 77.4048 152.156 76.9472 151.669C76.4996 151.181 76.2758 150.43 76.2758 149.416V144.761H77.6336V149.386C77.6336 150.043 77.7679 150.525 78.0364 150.833C78.305 151.142 78.7228 151.296 79.2897 151.296C79.9064 151.296 80.4038 151.092 80.7817 150.684C81.1697 150.266 81.3636 149.714 81.3636 149.028V144.761H82.7214V152.266H81.4084V150.609H81.6023C81.3935 151.176 81.0602 151.619 80.6027 151.937C80.1451 152.246 79.608 152.4 78.9913 152.4ZM85.0046 155.488V146.536C85.0046 146.248 84.9947 145.954 84.9748 145.656C84.9549 145.358 84.925 145.059 84.8853 144.761H86.1982L86.3624 146.492H86.1982C86.3474 145.915 86.6657 145.462 87.1531 145.134C87.6405 144.796 88.2224 144.626 88.8988 144.626C89.5652 144.626 90.1471 144.781 90.6445 145.089C91.1418 145.397 91.5247 145.845 91.7933 146.432C92.0718 147.009 92.2111 147.7 92.2111 148.506C92.2111 149.311 92.0718 150.008 91.7933 150.595C91.5247 151.181 91.1418 151.629 90.6445 151.937C90.1471 152.246 89.5652 152.4 88.8988 152.4C88.2324 152.4 87.6554 152.236 87.168 151.908C86.6906 151.569 86.3673 151.117 86.1982 150.55H86.3624V155.488H85.0046ZM88.5855 151.326C89.2718 151.326 89.8189 151.087 90.2267 150.609C90.6345 150.132 90.8384 149.431 90.8384 148.506C90.8384 147.581 90.6345 146.884 90.2267 146.417C89.8189 145.949 89.2718 145.716 88.5855 145.716C87.8991 145.716 87.3521 145.949 86.9442 146.417C86.5464 146.884 86.3474 147.581 86.3474 148.506C86.3474 149.431 86.5464 150.132 86.9442 150.609C87.3521 151.087 87.8991 151.326 88.5855 151.326ZM100.777 152.4C99.9916 152.4 99.3948 152.186 98.9869 151.758C98.5891 151.321 98.3901 150.664 98.3901 149.789V145.805H96.928V144.761H98.3901V142.747L99.7479 142.374V144.761H101.867V145.805H99.7479V149.67C99.7479 150.246 99.8473 150.659 100.046 150.908C100.255 151.147 100.554 151.266 100.941 151.266C101.14 151.266 101.31 151.251 101.449 151.221C101.598 151.181 101.732 151.137 101.852 151.087V152.206C101.702 152.266 101.528 152.31 101.329 152.34C101.14 152.38 100.956 152.4 100.777 152.4ZM106.381 152.4C105.645 152.4 105.008 152.246 104.471 151.937C103.934 151.619 103.516 151.171 103.218 150.595C102.919 150.008 102.77 149.311 102.77 148.506C102.77 147.71 102.919 147.024 103.218 146.447C103.516 145.86 103.934 145.412 104.471 145.104C105.008 144.786 105.645 144.626 106.381 144.626C107.117 144.626 107.753 144.786 108.291 145.104C108.838 145.412 109.255 145.86 109.544 146.447C109.842 147.024 109.992 147.71 109.992 148.506C109.992 149.311 109.842 150.008 109.544 150.595C109.255 151.171 108.838 151.619 108.291 151.937C107.753 152.246 107.117 152.4 106.381 152.4ZM106.381 151.326C107.057 151.326 107.599 151.087 108.007 150.609C108.415 150.132 108.619 149.431 108.619 148.506C108.619 147.581 108.415 146.884 108.007 146.417C107.599 145.949 107.057 145.716 106.381 145.716C105.695 145.716 105.147 145.949 104.74 146.417C104.342 146.884 104.143 147.581 104.143 148.506C104.143 149.431 104.342 150.132 104.74 150.609C105.147 151.087 105.695 151.326 106.381 151.326ZM119.643 152.4C118.976 152.4 118.399 152.236 117.912 151.908C117.424 151.569 117.101 151.107 116.942 150.52H117.106V152.266H115.748V141.284H117.106V146.477H116.942C117.111 145.9 117.434 145.447 117.912 145.119C118.399 144.791 118.976 144.626 119.643 144.626C120.309 144.626 120.891 144.786 121.388 145.104C121.886 145.412 122.269 145.855 122.537 146.432C122.816 147.009 122.955 147.705 122.955 148.521C122.955 149.326 122.816 150.023 122.537 150.609C122.269 151.186 121.881 151.629 121.373 151.937C120.876 152.246 120.299 152.4 119.643 152.4ZM119.329 151.326C120.006 151.326 120.548 151.092 120.956 150.624C121.373 150.147 121.582 149.446 121.582 148.521C121.582 147.596 121.373 146.899 120.956 146.432C120.548 145.954 120.006 145.716 119.329 145.716C118.643 145.716 118.096 145.949 117.688 146.417C117.29 146.884 117.091 147.581 117.091 148.506C117.091 149.431 117.29 150.132 117.688 150.609C118.096 151.087 118.643 151.326 119.329 151.326ZM127.945 152.4C127.209 152.4 126.573 152.246 126.035 151.937C125.498 151.619 125.08 151.171 124.782 150.595C124.484 150.008 124.334 149.311 124.334 148.506C124.334 147.71 124.484 147.024 124.782 146.447C125.08 145.86 125.498 145.412 126.035 145.104C126.573 144.786 127.209 144.626 127.945 144.626C128.681 144.626 129.318 144.786 129.855 145.104C130.402 145.412 130.82 145.86 131.108 146.447C131.407 147.024 131.556 147.71 131.556 148.506C131.556 149.311 131.407 150.008 131.108 150.595C130.82 151.171 130.402 151.619 129.855 151.937C129.318 152.246 128.681 152.4 127.945 152.4ZM127.945 151.326C128.622 151.326 129.164 151.087 129.571 150.609C129.979 150.132 130.183 149.431 130.183 148.506C130.183 147.581 129.979 146.884 129.571 146.417C129.164 145.949 128.622 145.716 127.945 145.716C127.259 145.716 126.712 145.949 126.304 146.417C125.906 146.884 125.707 147.581 125.707 148.506C125.707 149.431 125.906 150.132 126.304 150.609C126.712 151.087 127.259 151.326 127.945 151.326ZM136.542 152.4C135.806 152.4 135.169 152.246 134.632 151.937C134.095 151.619 133.677 151.171 133.379 150.595C133.08 150.008 132.931 149.311 132.931 148.506C132.931 147.71 133.08 147.024 133.379 146.447C133.677 145.86 134.095 145.412 134.632 145.104C135.169 144.786 135.806 144.626 136.542 144.626C137.278 144.626 137.914 144.786 138.452 145.104C138.999 145.412 139.416 145.86 139.705 146.447C140.003 147.024 140.152 147.71 140.152 148.506C140.152 149.311 140.003 150.008 139.705 150.595C139.416 151.171 138.999 151.619 138.452 151.937C137.914 152.246 137.278 152.4 136.542 152.4ZM136.542 151.326C137.218 151.326 137.76 151.087 138.168 150.609C138.576 150.132 138.78 149.431 138.78 148.506C138.78 147.581 138.576 146.884 138.168 146.417C137.76 145.949 137.218 145.716 136.542 145.716C135.855 145.716 135.308 145.949 134.901 146.417C134.503 146.884 134.304 147.581 134.304 148.506C134.304 149.431 134.503 150.132 134.901 150.609C135.308 151.087 135.855 151.326 136.542 151.326ZM141.975 152.266V141.284H143.333V148.073H143.363L146.75 144.761H148.436L144.407 148.7L144.422 148.058L148.794 152.266H147.063L143.363 148.774H143.333V152.266H141.975ZM156.524 152.4C155.738 152.4 155.142 152.186 154.734 151.758C154.336 151.321 154.137 150.664 154.137 149.789V145.805H152.675V144.761H154.137V142.747L155.495 142.374V144.761H157.613V145.805H155.495V149.67C155.495 150.246 155.594 150.659 155.793 150.908C156.002 151.147 156.3 151.266 156.688 151.266C156.887 151.266 157.056 151.251 157.196 151.221C157.345 151.181 157.479 151.137 157.598 151.087V152.206C157.449 152.266 157.275 152.31 157.076 152.34C156.887 152.38 156.703 152.4 156.524 152.4ZM159.037 152.266V144.761H160.395V152.266H159.037ZM158.918 143.12V141.657H160.529V143.12H158.918ZM165.888 152.4C165.142 152.4 164.496 152.246 163.949 151.937C163.401 151.619 162.974 151.167 162.665 150.58C162.367 149.983 162.218 149.277 162.218 148.461C162.218 147.655 162.372 146.969 162.68 146.402C162.989 145.825 163.416 145.387 163.963 145.089C164.511 144.781 165.152 144.626 165.888 144.626C166.376 144.626 166.848 144.711 167.306 144.88C167.763 145.039 168.136 145.273 168.425 145.581L167.962 146.536C167.674 146.258 167.355 146.054 167.007 145.925C166.659 145.785 166.316 145.716 165.978 145.716C165.242 145.716 164.665 145.954 164.247 146.432C163.829 146.899 163.62 147.581 163.62 148.476C163.62 149.381 163.829 150.077 164.247 150.565C164.665 151.052 165.242 151.296 165.978 151.296C166.306 151.296 166.644 151.231 166.992 151.102C167.34 150.973 167.664 150.769 167.962 150.49L168.425 151.43C168.126 151.748 167.743 151.992 167.276 152.161C166.818 152.32 166.356 152.4 165.888 152.4ZM170.082 152.266V141.284H171.44V148.073H171.469L174.856 144.761H176.542L172.514 148.7L172.529 148.058L176.9 152.266H175.17L171.469 148.774H171.44V152.266H170.082ZM181.133 152.4C179.94 152.4 178.995 152.057 178.299 151.37C177.612 150.684 177.269 149.739 177.269 148.536C177.269 147.74 177.418 147.054 177.717 146.477C178.025 145.89 178.448 145.437 178.985 145.119C179.522 144.791 180.149 144.626 180.865 144.626C181.551 144.626 182.133 144.776 182.611 145.074C183.088 145.363 183.451 145.775 183.7 146.312C183.948 146.85 184.073 147.486 184.073 148.222V148.67H178.328V147.864H183.148L182.894 148.058C182.894 147.282 182.72 146.68 182.372 146.253C182.034 145.825 181.531 145.611 180.865 145.611C180.139 145.611 179.577 145.865 179.179 146.372C178.781 146.869 178.582 147.551 178.582 148.416V148.55C178.582 149.466 178.806 150.157 179.254 150.624C179.711 151.092 180.343 151.326 181.148 151.326C181.596 151.326 182.014 151.261 182.402 151.132C182.79 151.002 183.163 150.789 183.521 150.49L183.968 151.43C183.63 151.738 183.207 151.977 182.7 152.146C182.203 152.315 181.681 152.4 181.133 152.4ZM188.637 152.4C187.852 152.4 187.255 152.186 186.847 151.758C186.449 151.321 186.25 150.664 186.25 149.789V145.805H184.788V144.761H186.25V142.747L187.608 142.374V144.761H189.727V145.805H187.608V149.67C187.608 150.246 187.707 150.659 187.906 150.908C188.115 151.147 188.414 151.266 188.802 151.266C189.001 151.266 189.17 151.251 189.309 151.221C189.458 151.181 189.592 151.137 189.712 151.087V152.206C189.563 152.266 189.388 152.31 189.19 152.34C189.001 152.38 188.817 152.4 188.637 152.4ZM193.687 152.4C193.08 152.4 192.513 152.32 191.986 152.161C191.469 152.002 191.041 151.773 190.703 151.475L191.136 150.535C191.504 150.813 191.907 151.027 192.344 151.176C192.792 151.316 193.25 151.385 193.717 151.385C194.284 151.385 194.712 151.281 195 151.072C195.299 150.863 195.448 150.585 195.448 150.236C195.448 149.958 195.353 149.734 195.164 149.565C194.975 149.396 194.677 149.272 194.269 149.192L192.852 148.909C192.215 148.759 191.733 148.521 191.404 148.192C191.086 147.854 190.927 147.422 190.927 146.894C190.927 146.457 191.046 146.069 191.285 145.731C191.524 145.382 191.862 145.114 192.3 144.925C192.747 144.726 193.269 144.626 193.866 144.626C194.413 144.626 194.921 144.706 195.388 144.865C195.866 145.024 196.258 145.258 196.567 145.566L196.119 146.477C195.811 146.208 195.463 146.004 195.075 145.865C194.697 145.716 194.309 145.641 193.911 145.641C193.334 145.641 192.906 145.755 192.628 145.984C192.349 146.203 192.21 146.492 192.21 146.85C192.21 147.118 192.295 147.342 192.464 147.521C192.633 147.69 192.906 147.819 193.284 147.909L194.702 148.192C195.368 148.332 195.87 148.56 196.209 148.879C196.547 149.197 196.716 149.62 196.716 150.147C196.716 150.614 196.587 151.017 196.328 151.355C196.079 151.694 195.726 151.952 195.269 152.131C194.821 152.31 194.294 152.4 193.687 152.4ZM205.306 152.4C204.52 152.4 203.924 152.186 203.516 151.758C203.118 151.321 202.919 150.664 202.919 149.789V145.805H201.457V144.761H202.919V142.747L204.277 142.374V144.761H206.395V145.805H204.277V149.67C204.277 150.246 204.376 150.659 204.575 150.908C204.784 151.147 205.082 151.266 205.47 151.266C205.669 151.266 205.838 151.251 205.978 151.221C206.127 151.181 206.261 151.137 206.38 151.087V152.206C206.231 152.266 206.057 152.31 205.858 152.34C205.669 152.38 205.485 152.4 205.306 152.4ZM210.91 152.4C210.174 152.4 209.537 152.246 209 151.937C208.463 151.619 208.045 151.171 207.747 150.595C207.448 150.008 207.299 149.311 207.299 148.506C207.299 147.71 207.448 147.024 207.747 146.447C208.045 145.86 208.463 145.412 209 145.104C209.537 144.786 210.174 144.626 210.91 144.626C211.646 144.626 212.282 144.786 212.819 145.104C213.366 145.412 213.784 145.86 214.073 146.447C214.371 147.024 214.52 147.71 214.52 148.506C214.52 149.311 214.371 150.008 214.073 150.595C213.784 151.171 213.366 151.619 212.819 151.937C212.282 152.246 211.646 152.4 210.91 152.4ZM210.91 151.326C211.586 151.326 212.128 151.087 212.536 150.609C212.944 150.132 213.148 149.431 213.148 148.506C213.148 147.581 212.944 146.884 212.536 146.417C212.128 145.949 211.586 145.716 210.91 145.716C210.223 145.716 209.676 145.949 209.268 146.417C208.871 146.884 208.672 147.581 208.672 148.506C208.672 149.431 208.871 150.132 209.268 150.609C209.676 151.087 210.223 151.326 210.91 151.326ZM220.277 152.266V141.284H221.635V152.266H220.277ZM223.905 152.266V144.761H225.263V152.266H223.905ZM223.786 143.12V141.657H225.397V143.12H223.786ZM230.07 152.4C229.463 152.4 228.896 152.32 228.369 152.161C227.852 152.002 227.424 151.773 227.086 151.475L227.518 150.535C227.886 150.813 228.289 151.027 228.727 151.176C229.174 151.316 229.632 151.385 230.1 151.385C230.667 151.385 231.094 151.281 231.383 151.072C231.681 150.863 231.83 150.585 231.83 150.236C231.83 149.958 231.736 149.734 231.547 149.565C231.358 149.396 231.059 149.272 230.652 149.192L229.234 148.909C228.598 148.759 228.115 148.521 227.787 148.192C227.469 147.854 227.309 147.422 227.309 146.894C227.309 146.457 227.429 146.069 227.668 145.731C227.906 145.382 228.244 145.114 228.682 144.925C229.13 144.726 229.652 144.626 230.249 144.626C230.796 144.626 231.303 144.706 231.771 144.865C232.248 145.024 232.641 145.258 232.949 145.566L232.502 146.477C232.193 146.208 231.845 146.004 231.457 145.865C231.079 145.716 230.691 145.641 230.294 145.641C229.717 145.641 229.289 145.755 229.01 145.984C228.732 146.203 228.593 146.492 228.593 146.85C228.593 147.118 228.677 147.342 228.846 147.521C229.015 147.69 229.289 147.819 229.667 147.909L231.084 148.192C231.751 148.332 232.253 148.56 232.591 148.879C232.929 149.197 233.099 149.62 233.099 150.147C233.099 150.614 232.969 151.017 232.711 151.355C232.462 151.694 232.109 151.952 231.651 152.131C231.204 152.31 230.676 152.4 230.07 152.4ZM237.682 152.4C236.896 152.4 236.299 152.186 235.891 151.758C235.494 151.321 235.295 150.664 235.295 149.789V145.805H233.832V144.761H235.295V142.747L236.652 142.374V144.761H238.771V145.805H236.652V149.67C236.652 150.246 236.752 150.659 236.951 150.908C237.16 151.147 237.458 151.266 237.846 151.266C238.045 151.266 238.214 151.251 238.353 151.221C238.502 151.181 238.637 151.137 238.756 151.087V152.206C238.607 152.266 238.433 152.31 238.234 152.34C238.045 152.38 237.861 152.4 237.682 152.4ZM243.539 152.4C242.345 152.4 241.4 152.057 240.704 151.37C240.018 150.684 239.675 149.739 239.675 148.536C239.675 147.74 239.824 147.054 240.122 146.477C240.431 145.89 240.853 145.437 241.39 145.119C241.928 144.791 242.554 144.626 243.27 144.626C243.957 144.626 244.539 144.776 245.016 145.074C245.493 145.363 245.857 145.775 246.105 146.312C246.354 146.85 246.478 147.486 246.478 148.222V148.67H240.734V147.864H245.553L245.299 148.058C245.299 147.282 245.125 146.68 244.777 146.253C244.439 145.825 243.937 145.611 243.27 145.611C242.544 145.611 241.982 145.865 241.584 146.372C241.186 146.869 240.988 147.551 240.988 148.416V148.55C240.988 149.466 241.211 150.157 241.659 150.624C242.117 151.092 242.748 151.326 243.554 151.326C244.001 151.326 244.419 151.261 244.807 151.132C245.195 151.002 245.568 150.789 245.926 150.49L246.374 151.43C246.036 151.738 245.613 151.977 245.106 152.146C244.608 152.315 244.086 152.4 243.539 152.4ZM248.253 152.266V146.536C248.253 146.248 248.243 145.954 248.223 145.656C248.203 145.358 248.173 145.059 248.133 144.761H249.446L249.595 146.372H249.416C249.645 145.805 249.998 145.372 250.476 145.074C250.953 144.776 251.51 144.626 252.147 144.626C253.032 144.626 253.698 144.87 254.146 145.358C254.594 145.835 254.817 146.581 254.817 147.596V152.266H253.46V147.67C253.46 146.984 253.325 146.492 253.057 146.193C252.788 145.885 252.371 145.731 251.804 145.731C251.127 145.731 250.59 145.934 250.192 146.342C249.804 146.75 249.61 147.302 249.61 147.998V152.266H248.253ZM263.778 152.4C262.992 152.4 262.395 152.186 261.987 151.758C261.589 151.321 261.39 150.664 261.39 149.789V145.805H259.928V144.761H261.39V142.747L262.748 142.374V144.761H264.867V145.805H262.748V149.67C262.748 150.246 262.848 150.659 263.046 150.908C263.255 151.147 263.554 151.266 263.942 151.266C264.141 151.266 264.31 151.251 264.449 151.221C264.598 151.181 264.732 151.137 264.852 151.087V152.206C264.703 152.266 264.529 152.31 264.33 152.34C264.141 152.38 263.957 152.4 263.778 152.4ZM269.381 152.4C268.645 152.4 268.008 152.246 267.471 151.937C266.934 151.619 266.516 151.171 266.218 150.595C265.92 150.008 265.77 149.311 265.77 148.506C265.77 147.71 265.92 147.024 266.218 146.447C266.516 145.86 266.934 145.412 267.471 145.104C268.008 144.786 268.645 144.626 269.381 144.626C270.117 144.626 270.754 144.786 271.291 145.104C271.838 145.412 272.256 145.86 272.544 146.447C272.843 147.024 272.992 147.71 272.992 148.506C272.992 149.311 272.843 150.008 272.544 150.595C272.256 151.171 271.838 151.619 271.291 151.937C270.754 152.246 270.117 152.4 269.381 152.4ZM269.381 151.326C270.057 151.326 270.6 151.087 271.007 150.609C271.415 150.132 271.619 149.431 271.619 148.506C271.619 147.581 271.415 146.884 271.007 146.417C270.6 145.949 270.057 145.716 269.381 145.716C268.695 145.716 268.148 145.949 267.74 146.417C267.342 146.884 267.143 147.581 267.143 148.506C267.143 149.431 267.342 150.132 267.74 150.609C268.148 151.087 268.695 151.326 269.381 151.326ZM281.554 152.4C280.768 152.4 280.171 152.186 279.763 151.758C279.365 151.321 279.166 150.664 279.166 149.789V145.805H277.704V144.761H279.166V142.747L280.524 142.374V144.761H282.643V145.805H280.524V149.67C280.524 150.246 280.624 150.659 280.822 150.908C281.031 151.147 281.33 151.266 281.718 151.266C281.917 151.266 282.086 151.251 282.225 151.221C282.374 151.181 282.508 151.137 282.628 151.087V152.206C282.479 152.266 282.305 152.31 282.106 152.34C281.917 152.38 281.733 152.4 281.554 152.4ZM284.067 152.266V141.284H285.425V146.387H285.231C285.449 145.81 285.803 145.372 286.29 145.074C286.777 144.776 287.339 144.626 287.976 144.626C288.881 144.626 289.548 144.87 289.975 145.358C290.413 145.845 290.632 146.581 290.632 147.566V152.266H289.274V147.64C289.274 146.974 289.145 146.492 288.886 146.193C288.627 145.885 288.205 145.731 287.618 145.731C286.961 145.731 286.429 145.934 286.021 146.342C285.624 146.75 285.425 147.292 285.425 147.969V152.266H284.067ZM296.27 152.4C295.076 152.4 294.131 152.057 293.435 151.37C292.748 150.684 292.405 149.739 292.405 148.536C292.405 147.74 292.554 147.054 292.853 146.477C293.161 145.89 293.584 145.437 294.121 145.119C294.658 144.791 295.285 144.626 296.001 144.626C296.687 144.626 297.269 144.776 297.747 145.074C298.224 145.363 298.587 145.775 298.836 146.312C299.085 146.85 299.209 147.486 299.209 148.222V148.67H293.465V147.864H298.284L298.03 148.058C298.03 147.282 297.856 146.68 297.508 146.253C297.17 145.825 296.667 145.611 296.001 145.611C295.275 145.611 294.713 145.865 294.315 146.372C293.917 146.869 293.718 147.551 293.718 148.416V148.55C293.718 149.466 293.942 150.157 294.39 150.624C294.847 151.092 295.479 151.326 296.284 151.326C296.732 151.326 297.15 151.261 297.538 151.132C297.926 151.002 298.299 150.789 298.657 150.49L299.104 151.43C298.766 151.738 298.343 151.977 297.836 152.146C297.339 152.315 296.817 152.4 296.27 152.4ZM306.946 152.266L304.141 144.761H305.559L307.827 151.191H307.439L309.766 144.761H310.87L313.183 151.191H312.81L315.093 144.761H316.451L313.631 152.266H312.347L309.96 145.731H310.617L308.244 152.266H306.946ZM320.975 152.4C320.239 152.4 319.603 152.246 319.065 151.937C318.528 151.619 318.111 151.171 317.812 150.595C317.514 150.008 317.364 149.311 317.364 148.506C317.364 147.71 317.514 147.024 317.812 146.447C318.111 145.86 318.528 145.412 319.065 145.104C319.603 144.786 320.239 144.626 320.975 144.626C321.711 144.626 322.348 144.786 322.885 145.104C323.432 145.412 323.85 145.86 324.138 146.447C324.437 147.024 324.586 147.71 324.586 148.506C324.586 149.311 324.437 150.008 324.138 150.595C323.85 151.171 323.432 151.619 322.885 151.937C322.348 152.246 321.711 152.4 320.975 152.4ZM320.975 151.326C321.652 151.326 322.194 151.087 322.601 150.609C323.009 150.132 323.213 149.431 323.213 148.506C323.213 147.581 323.009 146.884 322.601 146.417C322.194 145.949 321.652 145.716 320.975 145.716C320.289 145.716 319.742 145.949 319.334 146.417C318.936 146.884 318.737 147.581 318.737 148.506C318.737 149.431 318.936 150.132 319.334 150.609C319.742 151.087 320.289 151.326 320.975 151.326ZM326.394 152.266V146.596C326.394 146.298 326.384 145.994 326.364 145.686C326.354 145.368 326.329 145.059 326.289 144.761H327.602L327.766 146.641L327.543 146.656C327.642 146.198 327.811 145.82 328.05 145.522C328.299 145.213 328.592 144.99 328.93 144.85C329.278 144.701 329.636 144.626 330.004 144.626C330.164 144.626 330.298 144.631 330.407 144.641C330.517 144.651 330.626 144.676 330.736 144.716L330.706 145.925C330.557 145.865 330.417 145.83 330.288 145.82C330.169 145.8 330.019 145.79 329.84 145.79C329.403 145.79 329.025 145.89 328.706 146.089C328.398 146.288 328.159 146.551 327.99 146.879C327.831 147.208 327.752 147.561 327.752 147.939V152.266H326.394ZM331.931 152.266V141.284H333.289V148.073H333.319L336.705 144.761H338.391L334.363 148.7L334.378 148.058L338.749 152.266H337.019L333.319 148.774H333.289V152.266H331.931ZM342.146 152.4C341.539 152.4 340.972 152.32 340.445 152.161C339.928 152.002 339.5 151.773 339.162 151.475L339.595 150.535C339.963 150.813 340.366 151.027 340.803 151.176C341.251 151.316 341.708 151.385 342.176 151.385C342.743 151.385 343.171 151.281 343.459 151.072C343.757 150.863 343.907 150.585 343.907 150.236C343.907 149.958 343.812 149.734 343.623 149.565C343.434 149.396 343.136 149.272 342.728 149.192L341.31 148.909C340.674 148.759 340.191 148.521 339.863 148.192C339.545 147.854 339.386 147.422 339.386 146.894C339.386 146.457 339.505 146.069 339.744 145.731C339.983 145.382 340.321 145.114 340.758 144.925C341.206 144.726 341.728 144.626 342.325 144.626C342.872 144.626 343.379 144.706 343.847 144.865C344.324 145.024 344.717 145.258 345.026 145.566L344.578 146.477C344.27 146.208 343.922 146.004 343.534 145.865C343.156 145.716 342.768 145.641 342.37 145.641C341.793 145.641 341.365 145.755 341.087 145.984C340.808 146.203 340.669 146.492 340.669 146.85C340.669 147.118 340.753 147.342 340.923 147.521C341.092 147.69 341.365 147.819 341.743 147.909L343.161 148.192C343.827 148.332 344.329 148.56 344.668 148.879C345.006 149.197 345.175 149.62 345.175 150.147C345.175 150.614 345.046 151.017 344.787 151.355C344.538 151.694 344.185 151.952 343.728 152.131C343.28 152.31 342.753 152.4 342.146 152.4ZM354.123 152.4C353.387 152.4 352.75 152.246 352.213 151.937C351.676 151.619 351.258 151.171 350.96 150.595C350.662 150.008 350.512 149.311 350.512 148.506C350.512 147.71 350.662 147.024 350.96 146.447C351.258 145.86 351.676 145.412 352.213 145.104C352.75 144.786 353.387 144.626 354.123 144.626C354.859 144.626 355.496 144.786 356.033 145.104C356.58 145.412 356.998 145.86 357.286 146.447C357.585 147.024 357.734 147.71 357.734 148.506C357.734 149.311 357.585 150.008 357.286 150.595C356.998 151.171 356.58 151.619 356.033 151.937C355.496 152.246 354.859 152.4 354.123 152.4ZM354.123 151.326C354.799 151.326 355.342 151.087 355.749 150.609C356.157 150.132 356.361 149.431 356.361 148.506C356.361 147.581 356.157 146.884 355.749 146.417C355.342 145.949 354.799 145.716 354.123 145.716C353.437 145.716 352.89 145.949 352.482 146.417C352.084 146.884 351.885 147.581 351.885 148.506C351.885 149.431 352.084 150.132 352.482 150.609C352.89 151.087 353.437 151.326 354.123 151.326ZM359.902 152.266V145.805H358.439V144.761H360.275L359.902 145.104V143.895C359.902 143.02 360.12 142.359 360.558 141.911C360.996 141.453 361.632 141.225 362.468 141.225C362.667 141.225 362.876 141.24 363.094 141.269C363.323 141.299 363.512 141.349 363.661 141.419V142.523C363.542 142.473 363.393 142.433 363.214 142.403C363.035 142.374 362.861 142.359 362.692 142.359C362.393 142.359 362.135 142.418 361.916 142.538C361.697 142.657 361.533 142.836 361.423 143.075C361.314 143.304 361.259 143.607 361.259 143.985V145.044L361.05 144.761H363.333V145.805H361.259V152.266H359.902ZM370.59 152.266L367.785 144.761H369.203L371.471 151.191H371.083L373.41 144.761H374.514L376.827 151.191H376.454L378.737 144.761H380.094L377.275 152.266H375.991L373.604 145.731H374.261L371.888 152.266H370.59ZM384.619 152.4C383.883 152.4 383.247 152.246 382.709 151.937C382.172 151.619 381.754 151.171 381.456 150.595C381.158 150.008 381.008 149.311 381.008 148.506C381.008 147.71 381.158 147.024 381.456 146.447C381.754 145.86 382.172 145.412 382.709 145.104C383.247 144.786 383.883 144.626 384.619 144.626C385.355 144.626 385.992 144.786 386.529 145.104C387.076 145.412 387.494 145.86 387.782 146.447C388.081 147.024 388.23 147.71 388.23 148.506C388.23 149.311 388.081 150.008 387.782 150.595C387.494 151.171 387.076 151.619 386.529 151.937C385.992 152.246 385.355 152.4 384.619 152.4ZM384.619 151.326C385.296 151.326 385.838 151.087 386.245 150.609C386.653 150.132 386.857 149.431 386.857 148.506C386.857 147.581 386.653 146.884 386.245 146.417C385.838 145.949 385.296 145.716 384.619 145.716C383.933 145.716 383.386 145.949 382.978 146.417C382.58 146.884 382.381 147.581 382.381 148.506C382.381 149.431 382.58 150.132 382.978 150.609C383.386 151.087 383.933 151.326 384.619 151.326ZM390.038 152.266V146.596C390.038 146.298 390.028 145.994 390.008 145.686C389.998 145.368 389.973 145.059 389.933 144.761H391.246L391.41 146.641L391.187 146.656C391.286 146.198 391.455 145.82 391.694 145.522C391.943 145.213 392.236 144.99 392.574 144.85C392.922 144.701 393.28 144.626 393.648 144.626C393.808 144.626 393.942 144.631 394.051 144.641C394.161 144.651 394.27 144.676 394.38 144.716L394.35 145.925C394.2 145.865 394.061 145.83 393.932 145.82C393.813 145.8 393.663 145.79 393.484 145.79C393.047 145.79 392.669 145.89 392.35 146.089C392.042 146.288 391.803 146.551 391.634 146.879C391.475 147.208 391.395 147.561 391.395 147.939V152.266H390.038ZM395.575 152.266V141.284H396.933V152.266H395.575ZM402.068 152.4C401.411 152.4 400.834 152.246 400.337 151.937C399.84 151.629 399.452 151.181 399.173 150.595C398.895 150.008 398.755 149.311 398.755 148.506C398.755 147.7 398.895 147.009 399.173 146.432C399.452 145.845 399.84 145.397 400.337 145.089C400.834 144.781 401.411 144.626 402.068 144.626C402.724 144.626 403.296 144.791 403.783 145.119C404.281 145.447 404.614 145.9 404.783 146.477H404.604V141.284H405.962V152.266H404.619V150.52H404.783C404.624 151.107 404.296 151.569 403.798 151.908C403.311 152.236 402.734 152.4 402.068 152.4ZM402.381 151.326C403.057 151.326 403.599 151.087 404.007 150.609C404.425 150.132 404.634 149.431 404.634 148.506C404.634 147.581 404.425 146.884 404.007 146.417C403.599 145.949 403.057 145.716 402.381 145.716C401.705 145.716 401.157 145.949 400.74 146.417C400.332 146.884 400.128 147.581 400.128 148.506C400.128 149.431 400.332 150.132 400.74 150.609C401.157 151.087 401.705 151.326 402.381 151.326ZM38.6731 171.4C37.9271 171.4 37.2806 171.246 36.7335 170.937C36.1864 170.619 35.7587 170.167 35.4503 169.58C35.1519 168.983 35.0027 168.277 35.0027 167.461C35.0027 166.655 35.1569 165.969 35.4653 165.402C35.7736 164.825 36.2013 164.387 36.7484 164.089C37.2955 163.781 37.937 163.626 38.6731 163.626C39.1605 163.626 39.633 163.711 40.0905 163.88C40.5481 164.039 40.9211 164.273 41.2095 164.581L40.747 165.536C40.4586 165.258 40.1403 165.054 39.7921 164.925C39.444 164.785 39.1008 164.716 38.7626 164.716C38.0266 164.716 37.4496 164.954 37.0319 165.432C36.6141 165.899 36.4052 166.581 36.4052 167.476C36.4052 168.381 36.6141 169.077 37.0319 169.565C37.4496 170.052 38.0266 170.296 38.7626 170.296C39.0909 170.296 39.4291 170.231 39.7772 170.102C40.1253 169.973 40.4486 169.769 40.747 169.49L41.2095 170.43C40.9111 170.748 40.5282 170.992 40.0607 171.161C39.6031 171.32 39.1406 171.4 38.6731 171.4ZM42.8667 171.266V160.284H44.2245V171.266H42.8667ZM49.3595 171.4C48.703 171.4 48.1261 171.246 47.6287 170.937C47.1314 170.629 46.7435 170.181 46.4649 169.595C46.1864 169.008 46.0472 168.311 46.0472 167.506C46.0472 166.7 46.1864 166.009 46.4649 165.432C46.7435 164.845 47.1314 164.397 47.6287 164.089C48.1261 163.781 48.703 163.626 49.3595 163.626C50.0259 163.626 50.6028 163.796 51.0902 164.134C51.5875 164.462 51.9158 164.915 52.0749 165.492H51.8959L52.06 163.761H53.373C53.3432 164.059 53.3133 164.358 53.2835 164.656C53.2636 164.954 53.2536 165.248 53.2536 165.536V171.266H51.8959V169.55H52.06C51.9009 170.117 51.5726 170.569 51.0753 170.908C50.5879 171.236 50.0159 171.4 49.3595 171.4ZM49.6728 170.326C50.3492 170.326 50.8913 170.087 51.2991 169.609C51.7069 169.132 51.9108 168.431 51.9108 167.506C51.9108 166.581 51.7069 165.884 51.2991 165.417C50.8913 164.949 50.3492 164.716 49.6728 164.716C48.9964 164.716 48.4493 164.949 48.0316 165.417C47.6237 165.884 47.4198 166.581 47.4198 167.506C47.4198 168.431 47.6237 169.132 48.0316 169.609C48.4394 170.087 48.9865 170.326 49.6728 170.326ZM58.0649 171.4C57.4582 171.4 56.8912 171.32 56.364 171.161C55.8468 171.002 55.4191 170.773 55.0809 170.475L55.5136 169.535C55.8816 169.813 56.2844 170.027 56.7221 170.176C57.1697 170.316 57.6273 170.385 58.0948 170.385C58.6617 170.385 59.0894 170.281 59.3779 170.072C59.6763 169.863 59.8255 169.585 59.8255 169.236C59.8255 168.958 59.731 168.734 59.542 168.565C59.353 168.396 59.0546 168.272 58.6468 168.192L57.2294 167.909C56.5928 167.759 56.1104 167.521 55.7821 167.192C55.4638 166.854 55.3047 166.422 55.3047 165.894C55.3047 165.457 55.4241 165.069 55.6628 164.731C55.9015 164.382 56.2397 164.114 56.6773 163.925C57.125 163.726 57.6472 163.626 58.244 163.626C58.791 163.626 59.2983 163.706 59.7658 163.865C60.2433 164.024 60.6362 164.258 60.9445 164.566L60.4969 165.477C60.1886 165.208 59.8404 165.004 59.4525 164.865C59.0745 164.716 58.6866 164.641 58.2887 164.641C57.7118 164.641 57.2841 164.755 57.0056 164.984C56.7271 165.203 56.5878 165.492 56.5878 165.85C56.5878 166.118 56.6724 166.342 56.8415 166.521C57.0106 166.69 57.2841 166.819 57.6621 166.909L59.0795 167.192C59.7459 167.332 60.2482 167.56 60.5864 167.879C60.9246 168.197 61.0937 168.62 61.0937 169.147C61.0937 169.614 60.9644 170.017 60.7058 170.355C60.4571 170.694 60.104 170.952 59.6465 171.131C59.1989 171.31 58.6717 171.4 58.0649 171.4ZM65.4813 171.4C64.8746 171.4 64.3076 171.32 63.7804 171.161C63.2632 171.002 62.8355 170.773 62.4973 170.475L62.93 169.535C63.298 169.813 63.7008 170.027 64.1385 170.176C64.5861 170.316 65.0437 170.385 65.5112 170.385C66.0781 170.385 66.5058 170.281 66.7943 170.072C67.0927 169.863 67.2419 169.585 67.2419 169.236C67.2419 168.958 67.1474 168.734 66.9584 168.565C66.7694 168.396 66.471 168.272 66.0632 168.192L64.6458 167.909C64.0092 167.759 63.5268 167.521 63.1985 167.192C62.8802 166.854 62.7211 166.422 62.7211 165.894C62.7211 165.457 62.8404 165.069 63.0792 164.731C63.3179 164.382 63.6561 164.114 64.0937 163.925C64.5413 163.726 65.0635 163.626 65.6604 163.626C66.2074 163.626 66.7147 163.706 67.1822 163.865C67.6597 164.024 68.0526 164.258 68.3609 164.566L67.9133 165.477C67.605 165.208 67.2568 165.004 66.8689 164.865C66.4909 164.716 66.103 164.641 65.7051 164.641C65.1282 164.641 64.7005 164.755 64.422 164.984C64.1435 165.203 64.0042 165.492 64.0042 165.85C64.0042 166.118 64.0888 166.342 64.2579 166.521C64.427 166.69 64.7005 166.819 65.0785 166.909L66.4959 167.192C67.1623 167.332 67.6646 167.56 68.0028 167.879C68.341 168.197 68.5101 168.62 68.5101 169.147C68.5101 169.614 68.3808 170.017 68.1222 170.355C67.8735 170.694 67.5204 170.952 67.0629 171.131C66.6152 171.31 66.0881 171.4 65.4813 171.4ZM70.3613 171.266V163.761H71.719V171.266H70.3613ZM70.2419 162.12V160.657H71.8533V162.12H70.2419ZM77.2121 171.4C76.4661 171.4 75.8195 171.246 75.2725 170.937C74.7254 170.619 74.2977 170.167 73.9893 169.58C73.6909 168.983 73.5417 168.277 73.5417 167.461C73.5417 166.655 73.6959 165.969 74.0042 165.402C74.3126 164.825 74.7403 164.387 75.2874 164.089C75.8345 163.781 76.476 163.626 77.2121 163.626C77.6995 163.626 78.1719 163.711 78.6295 163.88C79.0871 164.039 79.4601 164.273 79.7485 164.581L79.286 165.536C78.9975 165.258 78.6792 165.054 78.3311 164.925C77.983 164.785 77.6398 164.716 77.3016 164.716C76.5655 164.716 75.9886 164.954 75.5709 165.432C75.1531 165.899 74.9442 166.581 74.9442 167.476C74.9442 168.381 75.1531 169.077 75.5709 169.565C75.9886 170.052 76.5655 170.296 77.3016 170.296C77.6298 170.296 77.968 170.231 78.3162 170.102C78.6643 169.973 78.9876 169.769 79.286 169.49L79.7485 170.43C79.4501 170.748 79.0672 170.992 78.5997 171.161C78.1421 171.32 77.6796 171.4 77.2121 171.4ZM83.9421 171.4C83.3354 171.4 82.7684 171.32 82.2412 171.161C81.724 171.002 81.2963 170.773 80.9581 170.475L81.3908 169.535C81.7588 169.813 82.1617 170.027 82.5993 170.176C83.0469 170.316 83.5045 170.385 83.972 170.385C84.5389 170.385 84.9667 170.281 85.2551 170.072C85.5535 169.863 85.7027 169.585 85.7027 169.236C85.7027 168.958 85.6082 168.734 85.4192 168.565C85.2302 168.396 84.9318 168.272 84.524 168.192L83.1066 167.909C82.47 167.759 81.9876 167.521 81.6593 167.192C81.3411 166.854 81.1819 166.422 81.1819 165.894C81.1819 165.457 81.3013 165.069 81.54 164.731C81.7787 164.382 82.1169 164.114 82.5546 163.925C83.0022 163.726 83.5244 163.626 84.1212 163.626C84.6683 163.626 85.1755 163.706 85.643 163.865C86.1205 164.024 86.5134 164.258 86.8217 164.566L86.3741 165.477C86.0658 165.208 85.7176 165.004 85.3297 164.865C84.9517 164.716 84.5638 164.641 84.1659 164.641C83.589 164.641 83.1613 164.755 82.8828 164.984C82.6043 165.203 82.465 165.492 82.465 165.85C82.465 166.118 82.5496 166.342 82.7187 166.521C82.8878 166.69 83.1613 166.819 83.5393 166.909L84.9567 167.192C85.6231 167.332 86.1255 167.56 86.4637 167.879C86.8018 168.197 86.9709 168.62 86.9709 169.147C86.9709 169.614 86.8416 170.017 86.583 170.355C86.3343 170.694 85.9812 170.952 85.5237 171.131C85.0761 171.31 84.5489 171.4 83.9421 171.4ZM89.2118 173.041L88.6 172.564C88.8785 172.275 89.0675 172.002 89.167 171.743C89.2665 171.494 89.3162 171.236 89.3162 170.967L89.6146 171.266H88.5254V169.609H90.1816V170.758C90.1816 171.186 90.1119 171.579 89.9727 171.937C89.8334 172.305 89.5798 172.673 89.2118 173.041ZM96.1656 171.266V160.284H97.5234V165.387H97.3294C97.5482 164.81 97.9013 164.372 98.3887 164.074C98.8761 163.776 99.4381 163.626 100.075 163.626C100.98 163.626 101.646 163.87 102.074 164.358C102.512 164.845 102.731 165.581 102.731 166.566V171.266H101.373V166.64C101.373 165.974 101.243 165.492 100.985 165.193C100.726 164.885 100.303 164.731 99.7166 164.731C99.0601 164.731 98.528 164.934 98.1202 165.342C97.7223 165.75 97.5234 166.292 97.5234 166.969V171.266H96.1656ZM108.368 171.4C107.175 171.4 106.23 171.057 105.534 170.37C104.847 169.684 104.504 168.739 104.504 167.536C104.504 166.74 104.653 166.054 104.952 165.477C105.26 164.89 105.683 164.437 106.22 164.119C106.757 163.791 107.384 163.626 108.1 163.626C108.786 163.626 109.368 163.776 109.845 164.074C110.323 164.363 110.686 164.775 110.935 165.312C111.183 165.85 111.308 166.486 111.308 167.222V167.67H105.563V166.864H110.383L110.129 167.058C110.129 166.282 109.955 165.68 109.607 165.253C109.269 164.825 108.766 164.611 108.1 164.611C107.374 164.611 106.812 164.865 106.414 165.372C106.016 165.869 105.817 166.551 105.817 167.416V167.55C105.817 168.466 106.041 169.157 106.488 169.624C106.946 170.092 107.578 170.326 108.383 170.326C108.831 170.326 109.249 170.261 109.637 170.132C110.025 170.002 110.398 169.789 110.756 169.49L111.203 170.43C110.865 170.738 110.442 170.977 109.935 171.146C109.438 171.315 108.915 171.4 108.368 171.4ZM115.947 171.4C115.29 171.4 114.713 171.246 114.216 170.937C113.719 170.629 113.331 170.181 113.052 169.595C112.774 169.008 112.634 168.311 112.634 167.506C112.634 166.7 112.774 166.009 113.052 165.432C113.331 164.845 113.719 164.397 114.216 164.089C114.713 163.781 115.29 163.626 115.947 163.626C116.613 163.626 117.19 163.796 117.677 164.134C118.175 164.462 118.503 164.915 118.662 165.492H118.483L118.647 163.761H119.96C119.93 164.059 119.901 164.358 119.871 164.656C119.851 164.954 119.841 165.248 119.841 165.536V171.266H118.483V169.55H118.647C118.488 170.117 118.16 170.569 117.662 170.908C117.175 171.236 116.603 171.4 115.947 171.4ZM116.26 170.326C116.936 170.326 117.478 170.087 117.886 169.609C118.294 169.132 118.498 168.431 118.498 167.506C118.498 166.581 118.294 165.884 117.886 165.417C117.478 164.949 116.936 164.716 116.26 164.716C115.584 164.716 115.037 164.949 114.619 165.417C114.211 165.884 114.007 166.581 114.007 167.506C114.007 168.431 114.211 169.132 114.619 169.609C115.027 170.087 115.574 170.326 116.26 170.326ZM122.101 171.266V165.596C122.101 165.298 122.091 164.994 122.071 164.686C122.061 164.368 122.036 164.059 121.996 163.761H123.309L123.473 165.641L123.25 165.656C123.349 165.198 123.518 164.82 123.757 164.522C124.006 164.213 124.299 163.99 124.637 163.85C124.985 163.701 125.343 163.626 125.711 163.626C125.871 163.626 126.005 163.631 126.114 163.641C126.224 163.651 126.333 163.676 126.443 163.716L126.413 164.925C126.264 164.865 126.124 164.83 125.995 164.82C125.876 164.8 125.726 164.79 125.547 164.79C125.11 164.79 124.732 164.89 124.413 165.089C124.105 165.288 123.866 165.551 123.697 165.879C123.538 166.208 123.459 166.561 123.459 166.939V171.266H122.101ZM131.572 171.266V163.761H132.93V171.266H131.572ZM131.453 162.12V160.657H133.064V162.12H131.453ZM135.2 171.266V165.536C135.2 165.248 135.19 164.954 135.17 164.656C135.15 164.358 135.12 164.059 135.081 163.761H136.394L136.543 165.372H136.364C136.593 164.805 136.946 164.372 137.423 164.074C137.901 163.776 138.458 163.626 139.094 163.626C139.979 163.626 140.646 163.87 141.093 164.358C141.541 164.835 141.765 165.581 141.765 166.596V171.266H140.407V166.67C140.407 165.984 140.273 165.492 140.004 165.193C139.736 164.885 139.318 164.731 138.751 164.731C138.075 164.731 137.537 164.934 137.14 165.342C136.752 165.75 136.558 166.302 136.558 166.998V171.266H135.2ZM146.791 171.4C146.005 171.4 145.408 171.186 145.001 170.758C144.603 170.321 144.404 169.664 144.404 168.789V164.805H142.942V163.761H144.404V161.747L145.762 161.374V163.761H147.88V164.805H145.762V168.67C145.762 169.246 145.861 169.659 146.06 169.908C146.269 170.147 146.567 170.266 146.955 170.266C147.154 170.266 147.323 170.251 147.462 170.221C147.612 170.181 147.746 170.137 147.865 170.087V171.206C147.716 171.266 147.542 171.31 147.343 171.34C147.154 171.38 146.97 171.4 146.791 171.4ZM152.648 171.4C151.455 171.4 150.51 171.057 149.813 170.37C149.127 169.684 148.784 168.739 148.784 167.536C148.784 166.74 148.933 166.054 149.231 165.477C149.54 164.89 149.962 164.437 150.5 164.119C151.037 163.791 151.663 163.626 152.38 163.626C153.066 163.626 153.648 163.776 154.125 164.074C154.603 164.363 154.966 164.775 155.214 165.312C155.463 165.85 155.587 166.486 155.587 167.222V167.67H149.843V166.864H154.662L154.409 167.058C154.409 166.282 154.235 165.68 153.886 165.253C153.548 164.825 153.046 164.611 152.38 164.611C151.653 164.611 151.091 164.865 150.694 165.372C150.296 165.869 150.097 166.551 150.097 167.416V167.55C150.097 168.466 150.321 169.157 150.768 169.624C151.226 170.092 151.857 170.326 152.663 170.326C153.111 170.326 153.528 170.261 153.916 170.132C154.304 170.002 154.677 169.789 155.035 169.49L155.483 170.43C155.145 170.738 154.722 170.977 154.215 171.146C153.717 171.315 153.195 171.4 152.648 171.4ZM157.347 171.266V165.596C157.347 165.298 157.337 164.994 157.317 164.686C157.307 164.368 157.282 164.059 157.242 163.761H158.555L158.719 165.641L158.496 165.656C158.595 165.198 158.764 164.82 159.003 164.522C159.252 164.213 159.545 163.99 159.883 163.85C160.231 163.701 160.589 163.626 160.958 163.626C161.117 163.626 161.251 163.631 161.36 163.641C161.47 163.651 161.579 163.676 161.689 163.716L161.659 164.925C161.51 164.865 161.37 164.83 161.241 164.82C161.122 164.8 160.972 164.79 160.793 164.79C160.356 164.79 159.978 164.89 159.659 165.089C159.351 165.288 159.112 165.551 158.943 165.879C158.784 166.208 158.705 166.561 158.705 166.939V171.266H157.347ZM166.199 171.4C165.005 171.4 164.06 171.057 163.364 170.37C162.678 169.684 162.334 168.739 162.334 167.536C162.334 166.74 162.484 166.054 162.782 165.477C163.09 164.89 163.513 164.437 164.05 164.119C164.587 163.791 165.214 163.626 165.93 163.626C166.616 163.626 167.198 163.776 167.676 164.074C168.153 164.363 168.516 164.775 168.765 165.312C169.014 165.85 169.138 166.486 169.138 167.222V167.67H163.394V166.864H168.213L167.959 167.058C167.959 166.282 167.785 165.68 167.437 165.253C167.099 164.825 166.597 164.611 165.93 164.611C165.204 164.611 164.642 164.865 164.244 165.372C163.846 165.869 163.647 166.551 163.647 167.416V167.55C163.647 168.466 163.871 169.157 164.319 169.624C164.776 170.092 165.408 170.326 166.214 170.326C166.661 170.326 167.079 170.261 167.467 170.132C167.855 170.002 168.228 169.789 168.586 169.49L169.034 170.43C168.695 170.738 168.273 170.977 167.765 171.146C167.268 171.315 166.746 171.4 166.199 171.4ZM173.449 171.4C172.842 171.4 172.275 171.32 171.748 171.161C171.231 171.002 170.803 170.773 170.465 170.475L170.897 169.535C171.265 169.813 171.668 170.027 172.106 170.176C172.554 170.316 173.011 170.385 173.479 170.385C174.046 170.385 174.473 170.281 174.762 170.072C175.06 169.863 175.209 169.585 175.209 169.236C175.209 168.958 175.115 168.734 174.926 168.565C174.737 168.396 174.438 168.272 174.031 168.192L172.613 167.909C171.977 167.759 171.494 167.521 171.166 167.192C170.848 166.854 170.688 166.422 170.688 165.894C170.688 165.457 170.808 165.069 171.047 164.731C171.285 164.382 171.623 164.114 172.061 163.925C172.509 163.726 173.031 163.626 173.628 163.626C174.175 163.626 174.682 163.706 175.15 163.865C175.627 164.024 176.02 164.258 176.328 164.566L175.881 165.477C175.572 165.208 175.224 165.004 174.836 164.865C174.458 164.716 174.07 164.641 173.673 164.641C173.096 164.641 172.668 164.755 172.389 164.984C172.111 165.203 171.972 165.492 171.972 165.85C171.972 166.118 172.056 166.342 172.225 166.521C172.394 166.69 172.668 166.819 173.046 166.909L174.463 167.192C175.13 167.332 175.632 167.56 175.97 167.879C176.308 168.197 176.478 168.62 176.478 169.147C176.478 169.614 176.348 170.017 176.09 170.355C175.841 170.694 175.488 170.952 175.03 171.131C174.583 171.31 174.055 171.4 173.449 171.4ZM181.061 171.4C180.275 171.4 179.678 171.186 179.27 170.758C178.873 170.321 178.674 169.664 178.674 168.789V164.805H177.211V163.761H178.674V161.747L180.031 161.374V163.761H182.15V164.805H180.031V168.67C180.031 169.246 180.131 169.659 180.33 169.908C180.539 170.147 180.837 170.266 181.225 170.266C181.424 170.266 181.593 170.251 181.732 170.221C181.881 170.181 182.016 170.137 182.135 170.087V171.206C181.986 171.266 181.812 171.31 181.613 171.34C181.424 171.38 181.24 171.4 181.061 171.4ZM183.574 171.266V163.761H184.932V171.266H183.574ZM183.455 162.12V160.657H185.066V162.12H183.455ZM187.202 171.266V165.536C187.202 165.248 187.192 164.954 187.172 164.656C187.152 164.358 187.123 164.059 187.083 163.761H188.396L188.545 165.372H188.366C188.595 164.805 188.948 164.372 189.425 164.074C189.903 163.776 190.46 163.626 191.096 163.626C191.982 163.626 192.648 163.87 193.096 164.358C193.543 164.835 193.767 165.581 193.767 166.596V171.266H192.409V166.67C192.409 165.984 192.275 165.492 192.006 165.193C191.738 164.885 191.32 164.731 190.753 164.731C190.077 164.731 189.54 164.934 189.142 165.342C188.754 165.75 188.56 166.302 188.56 166.998V171.266H187.202ZM199.33 174.608C198.674 174.608 198.072 174.528 197.525 174.369C196.978 174.21 196.485 173.966 196.048 173.638L196.406 172.638C196.714 172.847 197.018 173.016 197.316 173.146C197.614 173.275 197.923 173.369 198.241 173.429C198.569 173.489 198.908 173.519 199.256 173.519C199.992 173.519 200.544 173.33 200.912 172.952C201.28 172.574 201.464 172.037 201.464 171.34V169.236H201.613C201.454 169.803 201.126 170.256 200.628 170.594C200.141 170.922 199.564 171.087 198.898 171.087C198.221 171.087 197.629 170.937 197.122 170.639C196.625 170.331 196.237 169.898 195.958 169.341C195.68 168.774 195.541 168.112 195.541 167.357C195.541 166.591 195.68 165.929 195.958 165.372C196.237 164.815 196.625 164.387 197.122 164.089C197.629 163.781 198.221 163.626 198.898 163.626C199.564 163.626 200.141 163.791 200.628 164.119C201.116 164.447 201.439 164.9 201.598 165.477L201.464 165.342L201.598 163.761H202.911C202.881 164.059 202.851 164.358 202.822 164.656C202.802 164.954 202.792 165.248 202.792 165.536V171.176C202.792 172.29 202.498 173.141 201.911 173.727C201.335 174.314 200.474 174.608 199.33 174.608ZM199.196 170.012C199.882 170.012 200.429 169.779 200.837 169.311C201.245 168.844 201.449 168.192 201.449 167.357C201.449 166.511 201.245 165.86 200.837 165.402C200.429 164.944 199.882 164.716 199.196 164.716C198.5 164.716 197.943 164.944 197.525 165.402C197.117 165.86 196.913 166.511 196.913 167.357C196.913 168.192 197.117 168.844 197.525 169.311C197.943 169.779 198.5 170.012 199.196 170.012ZM209.417 171.266V164.805H207.955V163.761H209.79L209.417 164.104V162.895C209.417 162.02 209.636 161.359 210.074 160.911C210.512 160.453 211.148 160.225 211.984 160.225C212.183 160.225 212.391 160.24 212.61 160.269C212.839 160.299 213.028 160.349 213.177 160.419V161.523C213.058 161.473 212.909 161.433 212.73 161.403C212.551 161.374 212.377 161.359 212.207 161.359C211.909 161.359 211.65 161.418 211.432 161.538C211.213 161.657 211.049 161.836 210.939 162.075C210.83 162.304 210.775 162.607 210.775 162.985V164.044L210.566 163.761H212.849V164.805H210.775V171.266H209.417ZM216.935 171.4C216.278 171.4 215.701 171.246 215.204 170.937C214.707 170.629 214.319 170.181 214.04 169.595C213.762 169.008 213.623 168.311 213.623 167.506C213.623 166.7 213.762 166.009 214.04 165.432C214.319 164.845 214.707 164.397 215.204 164.089C215.701 163.781 216.278 163.626 216.935 163.626C217.601 163.626 218.178 163.796 218.666 164.134C219.163 164.462 219.491 164.915 219.65 165.492H219.471L219.635 163.761H220.948C220.919 164.059 220.889 164.358 220.859 164.656C220.839 164.954 220.829 165.248 220.829 165.536V171.266H219.471V169.55H219.635C219.476 170.117 219.148 170.569 218.651 170.908C218.163 171.236 217.591 171.4 216.935 171.4ZM217.248 170.326C217.925 170.326 218.467 170.087 218.874 169.609C219.282 169.132 219.486 168.431 219.486 167.506C219.486 166.581 219.282 165.884 218.874 165.417C218.467 164.949 217.925 164.716 217.248 164.716C216.572 164.716 216.025 164.949 215.607 165.417C215.199 165.884 214.995 166.581 214.995 167.506C214.995 168.431 215.199 169.132 215.607 169.609C216.015 170.087 216.562 170.326 217.248 170.326ZM226.327 171.4C225.581 171.4 224.934 171.246 224.387 170.937C223.84 170.619 223.412 170.167 223.104 169.58C222.805 168.983 222.656 168.277 222.656 167.461C222.656 166.655 222.81 165.969 223.119 165.402C223.427 164.825 223.855 164.387 224.402 164.089C224.949 163.781 225.591 163.626 226.327 163.626C226.814 163.626 227.286 163.711 227.744 163.88C228.202 164.039 228.575 164.273 228.863 164.581L228.401 165.536C228.112 165.258 227.794 165.054 227.446 164.925C227.097 164.785 226.754 164.716 226.416 164.716C225.68 164.716 225.103 164.954 224.685 165.432C224.268 165.899 224.059 166.581 224.059 167.476C224.059 168.381 224.268 169.077 224.685 169.565C225.103 170.052 225.68 170.296 226.416 170.296C226.744 170.296 227.083 170.231 227.431 170.102C227.779 169.973 228.102 169.769 228.401 169.49L228.863 170.43C228.565 170.748 228.182 170.992 227.714 171.161C227.257 171.32 226.794 171.4 226.327 171.4ZM233.34 171.4C232.554 171.4 231.957 171.186 231.549 170.758C231.151 170.321 230.953 169.664 230.953 168.789V164.805H229.49V163.761H230.953V161.747L232.31 161.374V163.761H234.429V164.805H232.31V168.67C232.31 169.246 232.41 169.659 232.609 169.908C232.818 170.147 233.116 170.266 233.504 170.266C233.703 170.266 233.872 170.251 234.011 170.221C234.16 170.181 234.295 170.137 234.414 170.087V171.206C234.265 171.266 234.091 171.31 233.892 171.34C233.703 171.38 233.519 171.4 233.34 171.4ZM238.389 171.4C237.783 171.4 237.216 171.32 236.689 171.161C236.171 171.002 235.744 170.773 235.405 170.475L235.838 169.535C236.206 169.813 236.609 170.027 237.047 170.176C237.494 170.316 237.952 170.385 238.419 170.385C238.986 170.385 239.414 170.281 239.702 170.072C240.001 169.863 240.15 169.585 240.15 169.236C240.15 168.958 240.056 168.734 239.867 168.565C239.678 168.396 239.379 168.272 238.971 168.192L237.554 167.909C236.917 167.759 236.435 167.521 236.107 167.192C235.788 166.854 235.629 166.422 235.629 165.894C235.629 165.457 235.749 165.069 235.987 164.731C236.226 164.382 236.564 164.114 237.002 163.925C237.449 163.726 237.972 163.626 238.569 163.626C239.116 163.626 239.623 163.706 240.09 163.865C240.568 164.024 240.961 164.258 241.269 164.566L240.821 165.477C240.513 165.208 240.165 165.004 239.777 164.865C239.399 164.716 239.011 164.641 238.613 164.641C238.036 164.641 237.609 164.755 237.33 164.984C237.052 165.203 236.912 165.492 236.912 165.85C236.912 166.118 236.997 166.342 237.166 166.521C237.335 166.69 237.609 166.819 237.987 166.909L239.404 167.192C240.07 167.332 240.573 167.56 240.911 167.879C241.249 168.197 241.418 168.62 241.418 169.147C241.418 169.614 241.289 170.017 241.03 170.355C240.782 170.694 240.429 170.952 239.971 171.131C239.523 171.31 238.996 171.4 238.389 171.4ZM250.068 171.4C249.412 171.4 248.835 171.246 248.337 170.937C247.84 170.629 247.452 170.181 247.174 169.595C246.895 169.008 246.756 168.311 246.756 167.506C246.756 166.7 246.895 166.009 247.174 165.432C247.452 164.845 247.84 164.397 248.337 164.089C248.835 163.781 249.412 163.626 250.068 163.626C250.735 163.626 251.311 163.796 251.799 164.134C252.296 164.462 252.624 164.915 252.784 165.492H252.605L252.769 163.761H254.082C254.052 164.059 254.022 164.358 253.992 164.656C253.972 164.954 253.962 165.248 253.962 165.536V171.266H252.605V169.55H252.769C252.61 170.117 252.281 170.569 251.784 170.908C251.297 171.236 250.725 171.4 250.068 171.4ZM250.381 170.326C251.058 170.326 251.6 170.087 252.008 169.609C252.416 169.132 252.619 168.431 252.619 167.506C252.619 166.581 252.416 165.884 252.008 165.417C251.6 164.949 251.058 164.716 250.381 164.716C249.705 164.716 249.158 164.949 248.74 165.417C248.332 165.884 248.129 166.581 248.129 167.506C248.129 168.431 248.332 169.132 248.74 169.609C249.148 170.087 249.695 170.326 250.381 170.326ZM260.131 171.4C259.465 171.4 258.888 171.236 258.401 170.908C257.913 170.569 257.59 170.107 257.431 169.52H257.595V171.266H256.237V160.284H257.595V165.477H257.431C257.6 164.9 257.923 164.447 258.401 164.119C258.888 163.791 259.465 163.626 260.131 163.626C260.798 163.626 261.38 163.786 261.877 164.104C262.374 164.412 262.757 164.855 263.026 165.432C263.304 166.009 263.444 166.705 263.444 167.521C263.444 168.326 263.304 169.023 263.026 169.609C262.757 170.186 262.369 170.629 261.862 170.937C261.365 171.246 260.788 171.4 260.131 171.4ZM259.818 170.326C260.494 170.326 261.036 170.092 261.444 169.624C261.862 169.147 262.071 168.446 262.071 167.521C262.071 166.596 261.862 165.899 261.444 165.432C261.036 164.954 260.494 164.716 259.818 164.716C259.132 164.716 258.585 164.949 258.177 165.417C257.779 165.884 257.58 166.581 257.58 167.506C257.58 168.431 257.779 169.132 258.177 169.609C258.585 170.087 259.132 170.326 259.818 170.326ZM268.434 171.4C267.698 171.4 267.061 171.246 266.524 170.937C265.987 170.619 265.569 170.171 265.271 169.595C264.972 169.008 264.823 168.311 264.823 167.506C264.823 166.71 264.972 166.024 265.271 165.447C265.569 164.86 265.987 164.412 266.524 164.104C267.061 163.786 267.698 163.626 268.434 163.626C269.17 163.626 269.807 163.786 270.344 164.104C270.891 164.412 271.309 164.86 271.597 165.447C271.895 166.024 272.045 166.71 272.045 167.506C272.045 168.311 271.895 169.008 271.597 169.595C271.309 170.171 270.891 170.619 270.344 170.937C269.807 171.246 269.17 171.4 268.434 171.4ZM268.434 170.326C269.11 170.326 269.652 170.087 270.06 169.609C270.468 169.132 270.672 168.431 270.672 167.506C270.672 166.581 270.468 165.884 270.06 165.417C269.652 164.949 269.11 164.716 268.434 164.716C267.748 164.716 267.201 164.949 266.793 165.417C266.395 165.884 266.196 166.581 266.196 167.506C266.196 168.431 266.395 169.132 266.793 169.609C267.201 170.087 267.748 170.326 268.434 170.326ZM276.538 171.4C275.633 171.4 274.952 171.156 274.494 170.669C274.047 170.181 273.823 169.43 273.823 168.416V163.761H275.18V168.386C275.18 169.043 275.315 169.525 275.583 169.833C275.852 170.142 276.27 170.296 276.837 170.296C277.453 170.296 277.951 170.092 278.329 169.684C278.717 169.266 278.91 168.714 278.91 168.028V163.761H280.268V171.266H278.955V169.609H279.149C278.94 170.176 278.607 170.619 278.15 170.937C277.692 171.246 277.155 171.4 276.538 171.4ZM285.356 171.4C284.571 171.4 283.974 171.186 283.566 170.758C283.168 170.321 282.969 169.664 282.969 168.789V164.805H281.507V163.761H282.969V161.747L284.327 161.374V163.761H286.446V164.805H284.327V168.67C284.327 169.246 284.426 169.659 284.625 169.908C284.834 170.147 285.133 170.266 285.521 170.266C285.72 170.266 285.889 170.251 286.028 170.221C286.177 170.181 286.311 170.137 286.431 170.087V171.206C286.282 171.266 286.107 171.31 285.909 171.34C285.72 171.38 285.536 171.4 285.356 171.4ZM294.609 171.4C293.823 171.4 293.226 171.186 292.818 170.758C292.42 170.321 292.222 169.664 292.222 168.789V164.805H290.759V163.761H292.222V161.747L293.579 161.374V163.761H295.698V164.805H293.579V168.67C293.579 169.246 293.679 169.659 293.878 169.908C294.087 170.147 294.385 170.266 294.773 170.266C294.972 170.266 295.141 170.251 295.28 170.221C295.429 170.181 295.564 170.137 295.683 170.087V171.206C295.534 171.266 295.36 171.31 295.161 171.34C294.972 171.38 294.788 171.4 294.609 171.4ZM297.122 171.266V160.284H298.48V165.387H298.286C298.505 164.81 298.858 164.372 299.345 164.074C299.833 163.776 300.394 163.626 301.031 163.626C301.936 163.626 302.603 163.87 303.03 164.358C303.468 164.845 303.687 165.581 303.687 166.566V171.266H302.329V166.64C302.329 165.974 302.2 165.492 301.941 165.193C301.683 164.885 301.26 164.731 300.673 164.731C300.017 164.731 299.484 164.934 299.077 165.342C298.679 165.75 298.48 166.292 298.48 166.969V171.266H297.122ZM309.325 171.4C308.131 171.4 307.186 171.057 306.49 170.37C305.804 169.684 305.46 168.739 305.46 167.536C305.46 166.74 305.61 166.054 305.908 165.477C306.216 164.89 306.639 164.437 307.176 164.119C307.713 163.791 308.34 163.626 309.056 163.626C309.743 163.626 310.324 163.776 310.802 164.074C311.279 164.363 311.642 164.775 311.891 165.312C312.14 165.85 312.264 166.486 312.264 167.222V167.67H306.52V166.864H311.339L311.085 167.058C311.085 166.282 310.911 165.68 310.563 165.253C310.225 164.825 309.723 164.611 309.056 164.611C308.33 164.611 307.768 164.865 307.37 165.372C306.972 165.869 306.773 166.551 306.773 167.416V167.55C306.773 168.466 306.997 169.157 307.445 169.624C307.902 170.092 308.534 170.326 309.34 170.326C309.787 170.326 310.205 170.261 310.593 170.132C310.981 170.002 311.354 169.789 311.712 169.49L312.16 170.43C311.821 170.738 311.399 170.977 310.891 171.146C310.394 171.315 309.872 171.4 309.325 171.4ZM314.038 171.266V163.761H315.396V171.266H314.038ZM313.919 162.12V160.657H315.53V162.12H313.919ZM317.651 171.266V165.596C317.651 165.298 317.642 164.994 317.622 164.686C317.612 164.368 317.587 164.059 317.547 163.761H318.86L319.024 165.641L318.8 165.656C318.9 165.198 319.069 164.82 319.308 164.522C319.556 164.213 319.85 163.99 320.188 163.85C320.536 163.701 320.894 163.626 321.262 163.626C321.421 163.626 321.556 163.631 321.665 163.641C321.774 163.651 321.884 163.676 321.993 163.716L321.963 164.925C321.814 164.865 321.675 164.83 321.546 164.82C321.426 164.8 321.277 164.79 321.098 164.79C320.66 164.79 320.282 164.89 319.964 165.089C319.656 165.288 319.417 165.551 319.248 165.879C319.089 166.208 319.009 166.561 319.009 166.939V171.266H317.651ZM327.123 171.266V160.284H328.48V171.266H327.123ZM330.751 171.266V163.761H332.108V171.266H330.751ZM330.631 162.12V160.657H332.243V162.12H330.631ZM336.587 171.266L333.379 163.761H334.841L337.452 170.206H337.035L339.69 163.761H341.078L337.855 171.266H336.587ZM345.649 171.4C344.455 171.4 343.51 171.057 342.814 170.37C342.128 169.684 341.785 168.739 341.785 167.536C341.785 166.74 341.934 166.054 342.232 165.477C342.541 164.89 342.963 164.437 343.5 164.119C344.038 163.791 344.664 163.626 345.38 163.626C346.067 163.626 346.649 163.776 347.126 164.074C347.604 164.363 347.967 164.775 348.215 165.312C348.464 165.85 348.588 166.486 348.588 167.222V167.67H342.844V166.864H347.663L347.41 167.058C347.41 166.282 347.236 165.68 346.887 165.253C346.549 164.825 346.047 164.611 345.38 164.611C344.654 164.611 344.092 164.865 343.694 165.372C343.297 165.869 343.098 166.551 343.098 167.416V167.55C343.098 168.466 343.321 169.157 343.769 169.624C344.227 170.092 344.858 170.326 345.664 170.326C346.112 170.326 346.529 170.261 346.917 170.132C347.305 170.002 347.678 169.789 348.036 169.49L348.484 170.43C348.146 170.738 347.723 170.977 347.216 171.146C346.718 171.315 346.196 171.4 345.649 171.4ZM352.899 171.4C352.292 171.4 351.725 171.32 351.198 171.161C350.681 171.002 350.253 170.773 349.915 170.475L350.348 169.535C350.716 169.813 351.119 170.027 351.556 170.176C352.004 170.316 352.461 170.385 352.929 170.385C353.496 170.385 353.924 170.281 354.212 170.072C354.51 169.863 354.66 169.585 354.66 169.236C354.66 168.958 354.565 168.734 354.376 168.565C354.187 168.396 353.889 168.272 353.481 168.192L352.064 167.909C351.427 167.759 350.944 167.521 350.616 167.192C350.298 166.854 350.139 166.422 350.139 165.894C350.139 165.457 350.258 165.069 350.497 164.731C350.736 164.382 351.074 164.114 351.511 163.925C351.959 163.726 352.481 163.626 353.078 163.626C353.625 163.626 354.132 163.706 354.6 163.865C355.077 164.024 355.47 164.258 355.779 164.566L355.331 165.477C355.023 165.208 354.675 165.004 354.287 164.865C353.909 164.716 353.521 164.641 353.123 164.641C352.546 164.641 352.118 164.755 351.84 164.984C351.561 165.203 351.422 165.492 351.422 165.85C351.422 166.118 351.506 166.342 351.676 166.521C351.845 166.69 352.118 166.819 352.496 166.909L353.914 167.192C354.58 167.332 355.082 167.56 355.421 167.879C355.759 168.197 355.928 168.62 355.928 169.147C355.928 169.614 355.799 170.017 355.54 170.355C355.291 170.694 354.938 170.952 354.481 171.131C354.033 171.31 353.506 171.4 352.899 171.4ZM364.578 171.4C363.921 171.4 363.344 171.246 362.847 170.937C362.35 170.629 361.962 170.181 361.683 169.595C361.405 169.008 361.265 168.311 361.265 167.506C361.265 166.7 361.405 166.009 361.683 165.432C361.962 164.845 362.35 164.397 362.847 164.089C363.344 163.781 363.921 163.626 364.578 163.626C365.244 163.626 365.821 163.796 366.308 164.134C366.806 164.462 367.134 164.915 367.293 165.492H367.114L367.278 163.761H368.591C368.561 164.059 368.532 164.358 368.502 164.656C368.482 164.954 368.472 165.248 368.472 165.536V171.266H367.114V169.55H367.278C367.119 170.117 366.791 170.569 366.294 170.908C365.806 171.236 365.234 171.4 364.578 171.4ZM364.891 170.326C365.567 170.326 366.11 170.087 366.517 169.609C366.925 169.132 367.129 168.431 367.129 167.506C367.129 166.581 366.925 165.884 366.517 165.417C366.11 164.949 365.567 164.716 364.891 164.716C364.215 164.716 363.668 164.949 363.25 165.417C362.842 165.884 362.638 166.581 362.638 167.506C362.638 168.431 362.842 169.132 363.25 169.609C363.658 170.087 364.205 170.326 364.891 170.326ZM370.747 171.266V165.536C370.747 165.248 370.737 164.954 370.717 164.656C370.697 164.358 370.667 164.059 370.627 163.761H371.94L372.09 165.372H371.911C372.139 164.805 372.492 164.372 372.97 164.074C373.447 163.776 374.004 163.626 374.641 163.626C375.526 163.626 376.193 163.87 376.64 164.358C377.088 164.835 377.312 165.581 377.312 166.596V171.266H375.954V166.67C375.954 165.984 375.82 165.492 375.551 165.193C375.282 164.885 374.865 164.731 374.298 164.731C373.621 164.731 373.084 164.934 372.686 165.342C372.298 165.75 372.104 166.302 372.104 166.998V171.266H370.747ZM382.397 171.4C381.741 171.4 381.164 171.246 380.667 170.937C380.169 170.629 379.781 170.181 379.503 169.595C379.224 169.008 379.085 168.311 379.085 167.506C379.085 166.7 379.224 166.009 379.503 165.432C379.781 164.845 380.169 164.397 380.667 164.089C381.164 163.781 381.741 163.626 382.397 163.626C383.054 163.626 383.626 163.791 384.113 164.119C384.611 164.447 384.944 164.9 385.113 165.477H384.934V160.284H386.292V171.266H384.949V169.52H385.113C384.954 170.107 384.626 170.569 384.128 170.908C383.641 171.236 383.064 171.4 382.397 171.4ZM382.711 170.326C383.387 170.326 383.929 170.087 384.337 169.609C384.755 169.132 384.964 168.431 384.964 167.506C384.964 166.581 384.755 165.884 384.337 165.417C383.929 164.949 383.387 164.716 382.711 164.716C382.034 164.716 381.487 164.949 381.07 165.417C380.662 165.884 380.458 166.581 380.458 167.506C380.458 168.431 380.662 169.132 381.07 169.609C381.487 170.087 382.034 170.326 382.711 170.326ZM395.306 171.4C394.52 171.4 393.923 171.186 393.515 170.758C393.117 170.321 392.918 169.664 392.918 168.789V164.805H391.456V163.761H392.918V161.747L394.276 161.374V163.761H396.395V164.805H394.276V168.67C394.276 169.246 394.375 169.659 394.574 169.908C394.783 170.147 395.082 170.266 395.47 170.266C395.669 170.266 395.838 170.251 395.977 170.221C396.126 170.181 396.26 170.137 396.38 170.087V171.206C396.231 171.266 396.056 171.31 395.858 171.34C395.669 171.38 395.485 171.4 395.306 171.4ZM397.804 171.266V165.596C397.804 165.298 397.794 164.994 397.774 164.686C397.764 164.368 397.739 164.059 397.699 163.761H399.012L399.176 165.641L398.953 165.656C399.052 165.198 399.221 164.82 399.46 164.522C399.709 164.213 400.002 163.99 400.34 163.85C400.688 163.701 401.046 163.626 401.415 163.626C401.574 163.626 401.708 163.631 401.817 163.641C401.927 163.651 402.036 163.676 402.146 163.716L402.116 164.925C401.967 164.865 401.827 164.83 401.698 164.82C401.579 164.8 401.429 164.79 401.25 164.79C400.813 164.79 400.435 164.89 400.116 165.089C399.808 165.288 399.569 165.551 399.4 165.879C399.241 166.208 399.162 166.561 399.162 166.939V171.266H397.804ZM403.539 174.653L403.226 173.548C403.693 173.439 404.081 173.31 404.389 173.16C404.698 173.021 404.956 172.837 405.165 172.608C405.374 172.38 405.558 172.091 405.717 171.743L406.09 170.848L406.061 171.415L402.793 163.761H404.255L406.866 170.191H406.478L409.089 163.761H410.492L407.045 171.848C406.836 172.335 406.608 172.743 406.359 173.071C406.12 173.399 405.857 173.668 405.568 173.877C405.29 174.086 404.981 174.25 404.643 174.369C404.305 174.488 403.937 174.583 403.539 174.653ZM35.1967 193.653L34.8834 192.548C35.3509 192.439 35.7388 192.31 36.0471 192.16C36.3555 192.021 36.6141 191.837 36.823 191.608C37.0319 191.38 37.2159 191.091 37.375 190.743L37.7481 189.848L37.7182 190.415L34.4507 182.761H35.9129L38.5239 189.191H38.136L40.747 182.761H42.1495L38.7029 190.848C38.4941 191.335 38.2653 191.743 38.0166 192.071C37.7779 192.399 37.5143 192.668 37.2258 192.877C36.9473 193.086 36.639 193.25 36.3008 193.369C35.9626 193.488 35.5946 193.583 35.1967 193.653ZM46.4669 190.4C45.7309 190.4 45.0943 190.246 44.5571 189.937C44.02 189.619 43.6022 189.171 43.3038 188.595C43.0054 188.008 42.8562 187.311 42.8562 186.506C42.8562 185.71 43.0054 185.024 43.3038 184.447C43.6022 183.86 44.02 183.412 44.5571 183.104C45.0943 182.786 45.7309 182.626 46.4669 182.626C47.203 182.626 47.8396 182.786 48.3767 183.104C48.9238 183.412 49.3415 183.86 49.63 184.447C49.9284 185.024 50.0776 185.71 50.0776 186.506C50.0776 187.311 49.9284 188.008 49.63 188.595C49.3415 189.171 48.9238 189.619 48.3767 189.937C47.8396 190.246 47.203 190.4 46.4669 190.4ZM46.4669 189.326C47.1433 189.326 47.6854 189.087 48.0932 188.609C48.501 188.132 48.705 187.431 48.705 186.506C48.705 185.581 48.501 184.884 48.0932 184.417C47.6854 183.949 47.1433 183.716 46.4669 183.716C45.7806 183.716 45.2335 183.949 44.8257 184.417C44.4278 184.884 44.2289 185.581 44.2289 186.506C44.2289 187.431 44.4278 188.132 44.8257 188.609C45.2335 189.087 45.7806 189.326 46.4669 189.326ZM54.5712 190.4C53.666 190.4 52.9846 190.156 52.5271 189.669C52.0795 189.181 51.8557 188.43 51.8557 187.416V182.761H53.2134V187.386C53.2134 188.043 53.3477 188.525 53.6163 188.833C53.8848 189.142 54.3026 189.296 54.8696 189.296C55.4863 189.296 55.9836 189.092 56.3616 188.684C56.7495 188.266 56.9435 187.714 56.9435 187.028V182.761H58.3012V190.266H56.9882V188.609H57.1822C56.9733 189.176 56.6401 189.619 56.1825 189.937C55.725 190.246 55.1879 190.4 54.5712 190.4ZM60.5695 190.266V184.596C60.5695 184.298 60.5596 183.994 60.5397 183.686C60.5298 183.368 60.5049 183.059 60.4651 182.761H61.7781L61.9422 184.641L61.7184 184.656C61.8179 184.198 61.987 183.82 62.2257 183.522C62.4743 183.213 62.7678 182.99 63.106 182.85C63.4541 182.701 63.8122 182.626 64.1802 182.626C64.3394 182.626 64.4737 182.631 64.5831 182.641C64.6925 182.651 64.8019 182.676 64.9113 182.716L64.8815 183.925C64.7323 183.865 64.593 183.83 64.4637 183.82C64.3443 183.8 64.1951 183.79 64.0161 183.79C63.5784 183.79 63.2005 183.89 62.8822 184.089C62.5738 184.288 62.3351 184.551 62.166 184.879C62.0069 185.208 61.9273 185.561 61.9273 185.939V190.266H60.5695ZM68.5703 190.4C67.9635 190.4 67.3965 190.32 66.8694 190.161C66.3521 190.002 65.9244 189.773 65.5862 189.475L66.0189 188.535C66.3869 188.813 66.7898 189.027 67.2274 189.176C67.675 189.316 68.1326 189.385 68.6001 189.385C69.1671 189.385 69.5948 189.281 69.8832 189.072C70.1816 188.863 70.3308 188.585 70.3308 188.236C70.3308 187.958 70.2363 187.734 70.0474 187.565C69.8584 187.396 69.56 187.272 69.1521 187.192L67.7347 186.909C67.0981 186.759 66.6157 186.521 66.2875 186.192C65.9692 185.854 65.81 185.422 65.81 184.894C65.81 184.457 65.9294 184.069 66.1681 183.731C66.4068 183.382 66.745 183.114 67.1827 182.925C67.6303 182.726 68.1525 182.626 68.7493 182.626C69.2964 182.626 69.8037 182.706 70.2712 182.865C70.7486 183.024 71.1415 183.258 71.4499 183.566L71.0023 184.477C70.6939 184.208 70.3458 184.004 69.9578 183.865C69.5799 183.716 69.1919 183.641 68.7941 183.641C68.2171 183.641 67.7894 183.755 67.5109 183.984C67.2324 184.203 67.0932 184.492 67.0932 184.85C67.0932 185.118 67.1777 185.342 67.3468 185.521C67.5159 185.69 67.7894 185.819 68.1674 185.909L69.5848 186.192C70.2513 186.332 70.7536 186.56 71.0918 186.879C71.43 187.197 71.5991 187.62 71.5991 188.147C71.5991 188.614 71.4698 189.017 71.2111 189.355C70.9625 189.694 70.6094 189.952 70.1518 190.131C69.7042 190.31 69.177 190.4 68.5703 190.4ZM76.8669 190.4C75.6733 190.4 74.7284 190.057 74.0321 189.37C73.3458 188.684 73.0026 187.739 73.0026 186.536C73.0026 185.74 73.1518 185.054 73.4502 184.477C73.7586 183.89 74.1813 183.437 74.7184 183.119C75.2556 182.791 75.8822 182.626 76.5984 182.626C77.2847 182.626 77.8666 182.776 78.344 183.074C78.8215 183.363 79.1845 183.775 79.4332 184.312C79.6819 184.85 79.8062 185.486 79.8062 186.222V186.67H74.0619V185.864H78.8812L78.6275 186.058C78.6275 185.282 78.4535 184.68 78.1053 184.253C77.7671 183.825 77.2648 183.611 76.5984 183.611C75.8723 183.611 75.3103 183.865 74.9124 184.372C74.5145 184.869 74.3156 185.551 74.3156 186.416V186.55C74.3156 187.466 74.5394 188.157 74.987 188.624C75.4445 189.092 76.0762 189.326 76.8819 189.326C77.3295 189.326 77.7472 189.261 78.1352 189.132C78.5231 189.002 78.8961 188.789 79.2542 188.49L79.7018 189.43C79.3636 189.738 78.9408 189.977 78.4336 190.146C77.9362 190.315 77.414 190.4 76.8669 190.4ZM81.5806 190.266V179.284H82.9383V190.266H81.5806ZM85.6264 190.266V183.805H84.1642V182.761H85.9994L85.6264 183.104V181.895C85.6264 181.02 85.8452 180.359 86.2829 179.911C86.7205 179.453 87.3571 179.225 88.1926 179.225C88.3916 179.225 88.6005 179.24 88.8193 179.269C89.0481 179.299 89.2371 179.349 89.3863 179.419V180.523C89.2669 180.473 89.1177 180.433 88.9387 180.403C88.7596 180.374 88.5855 180.359 88.4164 180.359C88.118 180.359 87.8594 180.418 87.6406 180.538C87.4218 180.657 87.2576 180.836 87.1482 181.075C87.0388 181.304 86.9841 181.607 86.9841 181.985V183.044L86.7752 182.761H89.058V183.805H86.9841V190.266H85.6264ZM97.1507 190.4C96.4942 190.4 95.9173 190.246 95.42 189.937C94.9226 189.629 94.5347 189.181 94.2562 188.595C93.9777 188.008 93.8384 187.311 93.8384 186.506C93.8384 185.7 93.9777 185.009 94.2562 184.432C94.5347 183.845 94.9226 183.397 95.42 183.089C95.9173 182.781 96.4942 182.626 97.1507 182.626C97.8171 182.626 98.3941 182.796 98.8815 183.134C99.3788 183.462 99.707 183.915 99.8662 184.492H99.6871L99.8513 182.761H101.164C101.134 183.059 101.105 183.358 101.075 183.656C101.055 183.954 101.045 184.248 101.045 184.536V190.266H99.6871V188.55H99.8513C99.6921 189.117 99.3639 189.569 98.8665 189.908C98.3791 190.236 97.8072 190.4 97.1507 190.4ZM97.464 189.326C98.1404 189.326 98.6825 189.087 99.0903 188.609C99.4982 188.132 99.7021 187.431 99.7021 186.506C99.7021 185.581 99.4982 184.884 99.0903 184.417C98.6825 183.949 98.1404 183.716 97.464 183.716C96.7877 183.716 96.2406 183.949 95.8228 184.417C95.415 184.884 95.2111 185.581 95.2111 186.506C95.2111 187.431 95.415 188.132 95.8228 188.609C96.2306 189.087 96.7777 189.326 97.464 189.326ZM105.856 190.4C105.249 190.4 104.682 190.32 104.155 190.161C103.638 190.002 103.21 189.773 102.872 189.475L103.305 188.535C103.673 188.813 104.076 189.027 104.513 189.176C104.961 189.316 105.419 189.385 105.886 189.385C106.453 189.385 106.881 189.281 107.169 189.072C107.468 188.863 107.617 188.585 107.617 188.236C107.617 187.958 107.522 187.734 107.333 187.565C107.144 187.396 106.846 187.272 106.438 187.192L105.021 186.909C104.384 186.759 103.902 186.521 103.573 186.192C103.255 185.854 103.096 185.422 103.096 184.894C103.096 184.457 103.215 184.069 103.454 183.731C103.693 183.382 104.031 183.114 104.469 182.925C104.916 182.726 105.438 182.626 106.035 182.626C106.582 182.626 107.09 182.706 107.557 182.865C108.035 183.024 108.427 183.258 108.736 183.566L108.288 184.477C107.98 184.208 107.632 184.004 107.244 183.865C106.866 183.716 106.478 183.641 106.08 183.641C105.503 183.641 105.075 183.755 104.797 183.984C104.518 184.203 104.379 184.492 104.379 184.85C104.379 185.118 104.464 185.342 104.633 185.521C104.802 185.69 105.075 185.819 105.453 185.909L106.871 186.192C107.537 186.332 108.039 186.56 108.378 186.879C108.716 187.197 108.885 187.62 108.885 188.147C108.885 188.614 108.756 189.017 108.497 189.355C108.248 189.694 107.895 189.952 107.438 190.131C106.99 190.31 106.463 190.4 105.856 190.4ZM117.535 190.4C116.878 190.4 116.301 190.246 115.804 189.937C115.307 189.629 114.919 189.181 114.64 188.595C114.362 188.008 114.223 187.311 114.223 186.506C114.223 185.7 114.362 185.009 114.64 184.432C114.919 183.845 115.307 183.397 115.804 183.089C116.301 182.781 116.878 182.626 117.535 182.626C118.201 182.626 118.778 182.796 119.266 183.134C119.763 183.462 120.091 183.915 120.25 184.492H120.071L120.235 182.761H121.548C121.519 183.059 121.489 183.358 121.459 183.656C121.439 183.954 121.429 184.248 121.429 184.536V190.266H120.071V188.55H120.235C120.076 189.117 119.748 189.569 119.251 189.908C118.763 190.236 118.191 190.4 117.535 190.4ZM117.848 189.326C118.525 189.326 119.067 189.087 119.474 188.609C119.882 188.132 120.086 187.431 120.086 186.506C120.086 185.581 119.882 184.884 119.474 184.417C119.067 183.949 118.525 183.716 117.848 183.716C117.172 183.716 116.625 183.949 116.207 184.417C115.799 184.884 115.595 185.581 115.595 186.506C115.595 187.431 115.799 188.132 116.207 188.609C116.615 189.087 117.162 189.326 117.848 189.326ZM129.667 190.266L126.862 182.761H128.279L130.547 189.191H130.159L132.487 182.761H133.591L135.904 189.191H135.531L137.813 182.761H139.171L136.351 190.266H135.068L132.681 183.731H133.337L130.965 190.266H129.667ZM140.634 190.266V184.596C140.634 184.298 140.625 183.994 140.605 183.686C140.595 183.368 140.57 183.059 140.53 182.761H141.843L142.007 184.641L141.783 184.656C141.883 184.198 142.052 183.82 142.291 183.522C142.539 183.213 142.833 182.99 143.171 182.85C143.519 182.701 143.877 182.626 144.245 182.626C144.404 182.626 144.539 182.631 144.648 182.641C144.757 182.651 144.867 182.676 144.976 182.716L144.946 183.925C144.797 183.865 144.658 183.83 144.529 183.82C144.409 183.8 144.26 183.79 144.081 183.79C143.643 183.79 143.265 183.89 142.947 184.089C142.639 184.288 142.4 184.551 142.231 184.879C142.072 185.208 141.992 185.561 141.992 185.939V190.266H140.634ZM146.172 190.266V182.761H147.529V190.266H146.172ZM146.052 181.12V179.657H147.664V181.12H146.052ZM152.605 190.4C151.819 190.4 151.222 190.186 150.814 189.758C150.416 189.321 150.217 188.664 150.217 187.789V183.805H148.755V182.761H150.217V180.747L151.575 180.374V182.761H153.694V183.805H151.575V187.67C151.575 188.246 151.675 188.659 151.874 188.908C152.082 189.147 152.381 189.266 152.769 189.266C152.968 189.266 153.137 189.251 153.276 189.221C153.425 189.181 153.56 189.137 153.679 189.087V190.206C153.53 190.266 153.356 190.31 153.157 190.34C152.968 190.38 152.784 190.4 152.605 190.4ZM158.462 190.4C157.268 190.4 156.323 190.057 155.627 189.37C154.941 188.684 154.597 187.739 154.597 186.536C154.597 185.74 154.747 185.054 155.045 184.477C155.353 183.89 155.776 183.437 156.313 183.119C156.85 182.791 157.477 182.626 158.193 182.626C158.88 182.626 159.461 182.776 159.939 183.074C160.416 183.363 160.779 183.775 161.028 184.312C161.277 184.85 161.401 185.486 161.401 186.222V186.67H155.657V185.864H160.476L160.222 186.058C160.222 185.282 160.048 184.68 159.7 184.253C159.362 183.825 158.86 183.611 158.193 183.611C157.467 183.611 156.905 183.865 156.507 184.372C156.109 184.869 155.91 185.551 155.91 186.416V186.55C155.91 187.466 156.134 188.157 156.582 188.624C157.039 189.092 157.671 189.326 158.477 189.326C158.924 189.326 159.342 189.261 159.73 189.132C160.118 189.002 160.491 188.789 160.849 188.49L161.297 189.43C160.958 189.738 160.536 189.977 160.028 190.146C159.531 190.315 159.009 190.4 158.462 190.4ZM163.16 190.266V184.596C163.16 184.298 163.15 183.994 163.131 183.686C163.121 183.368 163.096 183.059 163.056 182.761H164.369L164.533 184.641L164.309 184.656C164.409 184.198 164.578 183.82 164.817 183.522C165.065 183.213 165.359 182.99 165.697 182.85C166.045 182.701 166.403 182.626 166.771 182.626C166.93 182.626 167.065 182.631 167.174 182.641C167.283 182.651 167.393 182.676 167.502 182.716L167.472 183.925C167.323 183.865 167.184 183.83 167.055 183.82C166.935 183.8 166.786 183.79 166.607 183.79C166.169 183.79 165.791 183.89 165.473 184.089C165.165 184.288 164.926 184.551 164.757 184.879C164.598 185.208 164.518 185.561 164.518 185.939V190.266H163.16ZM168.153 190.266V188.609H169.809V190.266H168.153Z" fill="black"/>
<rect x="454.32" y="164.867" width="313.324" height="135.028" rx="13.4282" fill="#FEF0DA"/>
<path d="M756.51 131.066V142.542H745.034" stroke="white" stroke-width="1.49202"/>
<path d="M756.51 142.543L745.854 131.887" stroke="white" stroke-width="1.49202"/>
<path d="M34.9616 81.9492L42.8499 64.0674H44.6761L52.6912 81.9492H50.5099L48.2778 76.851L49.2163 77.3836H38.2843L39.2989 76.851L37.1175 81.9492H34.9616ZM43.7376 66.477L39.6286 76.1154L39.0199 75.6589H48.4554L47.9988 76.1154L43.7884 66.477H43.7376ZM62.0023 81.9492V64.0674H64.1076V80.123H73.1373V81.9492H62.0023ZM75.8239 81.9492V64.0674H77.9291V81.9492H75.8239ZM86.7252 81.9492V65.8429H80.4095V64.0674H95.1208V65.8429H88.8304V81.9492H86.7252ZM97.6957 81.9492V64.0674H109.11V65.7921H99.7502V72.0064H108.552V73.7565H99.7502V80.1991H109.11V81.9492H97.6957ZM112.607 81.9492V64.0674H119.912C121.789 64.0674 123.243 64.5155 124.275 65.4117C125.306 66.291 125.822 67.5254 125.822 69.1149C125.822 70.1633 125.585 71.0595 125.112 71.8035C124.655 72.5306 124.004 73.0886 123.159 73.4775C122.33 73.8665 121.358 74.0609 120.242 74.0609L120.698 73.7312H121.206C121.899 73.7312 122.516 73.9003 123.057 74.2385C123.615 74.5767 124.055 75.1431 124.376 75.9379L126.913 81.9492H124.604L122.169 76.0393C121.882 75.2784 121.451 74.788 120.876 74.5682C120.301 74.3315 119.582 74.2131 118.72 74.2131H114.712V81.9492H112.607ZM114.712 72.5644H119.608C120.96 72.5644 121.983 72.277 122.677 71.702C123.387 71.1102 123.742 70.2647 123.742 69.1656C123.742 68.0665 123.387 67.2295 122.677 66.6545C121.983 66.0796 120.96 65.7921 119.608 65.7921H114.712V72.5644ZM128.121 81.9492L136.009 64.0674H137.836L145.851 81.9492H143.669L141.437 76.851L142.376 77.3836H131.444L132.458 76.851L130.277 81.9492H128.121ZM136.897 66.477L132.788 76.1154L132.179 75.6589H141.615L141.158 76.1154L136.948 66.477H136.897ZM148.548 81.9492V64.0674H155.853C157.73 64.0674 159.184 64.5155 160.216 65.4117C161.247 66.291 161.763 67.5254 161.763 69.1149C161.763 70.1633 161.526 71.0595 161.053 71.8035C160.596 72.5306 159.945 73.0886 159.1 73.4775C158.271 73.8665 157.299 74.0609 156.183 74.0609L156.639 73.7312H157.147C157.84 73.7312 158.457 73.9003 158.998 74.2385C159.556 74.5767 159.996 75.1431 160.317 75.9379L162.854 81.9492H160.546L158.111 76.0393C157.823 75.2784 157.392 74.788 156.817 74.5682C156.242 74.3315 155.523 74.2131 154.661 74.2131H150.653V81.9492H148.548ZM150.653 72.5644H155.549C156.902 72.5644 157.925 72.277 158.618 71.702C159.328 71.1102 159.683 70.2647 159.683 69.1656C159.683 68.0665 159.328 67.2295 158.618 66.6545C157.925 66.0796 156.902 65.7921 155.549 65.7921H150.653V72.5644ZM170.375 81.9492V73.6044L170.831 75.0248L163.425 64.0674H165.86L171.744 72.9702H171.212L177.071 64.0674H179.404L172.023 75.0248L172.48 73.6044V81.9492H170.375ZM187.982 81.9492V64.0674H199.396V65.7921H190.036V72.0064H198.838V73.7565H190.036V80.1991H199.396V81.9492H187.982ZM208.351 81.9492L200.564 64.0674H202.821L209.746 80.2752H208.959L215.935 64.0674H218.116L210.278 81.9492H208.351ZM220.43 81.9492V64.0674H231.844V65.7921H222.485V72.0064H231.286V73.7565H222.485V80.1991H231.844V81.9492H220.43ZM235.342 81.9492V64.0674H236.99L248.455 79.286H247.872V64.0674H249.825V81.9492H248.201L236.737 66.7306H237.295V81.9492H235.342ZM254.291 81.9492V64.0674H256.396V81.9492H254.291ZM260.855 81.9492V64.0674H262.503L273.968 79.286H273.385V64.0674H275.338V81.9492H273.714L262.25 66.7306H262.808V81.9492H260.855ZM288.022 82.1775C286.06 82.1775 284.42 81.8139 283.101 81.0868C281.782 80.3597 280.793 79.3113 280.133 77.9417C279.474 76.572 279.144 74.9318 279.144 73.021C279.144 71.1271 279.491 69.4953 280.184 68.1257C280.877 66.756 281.875 65.6991 283.177 64.9551C284.479 64.2111 286.052 63.8391 287.895 63.8391C289.197 63.8391 290.321 64.0335 291.268 64.4225C292.232 64.7945 293.095 65.3525 293.855 66.0965L293.069 67.7452C292.511 67.2548 291.97 66.8659 291.446 66.5784C290.939 66.291 290.406 66.0796 289.848 65.9443C289.29 65.7921 288.639 65.716 287.895 65.716C285.781 65.716 284.158 66.3586 283.025 67.6437C281.909 68.912 281.351 70.7128 281.351 73.0463C281.351 75.3968 281.892 77.1976 282.974 78.4489C284.073 79.7002 285.773 80.3259 288.072 80.3259C288.918 80.3259 289.721 80.2498 290.482 80.0976C291.26 79.9285 292.012 79.6918 292.739 79.3874L292.283 80.5288V74.2385H287.717V72.5898H294.084V80.8839C293.357 81.2728 292.435 81.5857 291.319 81.8224C290.22 82.0591 289.121 82.1775 288.022 82.1775ZM304.31 72.9956C304.31 71.1017 304.632 69.4784 305.274 68.1257C305.934 66.756 306.872 65.6991 308.09 64.9551C309.324 64.2111 310.804 63.8391 312.528 63.8391C314.202 63.8391 315.657 64.2111 316.891 64.9551C318.125 65.6991 319.072 66.756 319.732 68.1257C320.408 69.4784 320.746 71.0933 320.746 72.9702C320.746 74.8641 320.408 76.4959 319.732 77.8656C319.055 79.2352 318.1 80.3005 316.866 81.0615C315.648 81.8055 314.202 82.1775 312.528 82.1775C310.804 82.1775 309.332 81.8055 308.115 81.0615C306.898 80.3005 305.959 79.2352 305.3 77.8656C304.64 76.4959 304.31 74.8726 304.31 72.9956ZM306.517 72.9956C306.517 75.2953 307.024 77.0962 308.039 78.3982C309.053 79.6833 310.55 80.3259 312.528 80.3259C314.422 80.3259 315.893 79.6833 316.942 78.3982C318.007 77.0962 318.54 75.2953 318.54 72.9956C318.54 70.679 318.016 68.8866 316.967 67.6184C315.919 66.3332 314.439 65.6907 312.528 65.6907C310.55 65.6907 309.053 66.3332 308.039 67.6184C307.024 68.8866 306.517 70.679 306.517 72.9956ZM324.563 81.9492V64.0674H335.723V65.7921H326.668V72.0571H335.165V73.7819H326.668V81.9492H324.563ZM350.289 81.9492L344.049 64.0674H346.256L351.709 80.1737H350.822L356.554 64.0674H358.228L363.656 80.1737H362.844L368.45 64.0674H370.53L364.239 81.9492H362.362L357.087 66.4516H357.619L352.115 81.9492H350.289ZM372.576 72.9956C372.576 71.1017 372.897 69.4784 373.54 68.1257C374.199 66.756 375.138 65.6991 376.355 64.9551C377.59 64.2111 379.069 63.8391 380.794 63.8391C382.468 63.8391 383.922 64.2111 385.157 64.9551C386.391 65.6991 387.338 66.756 387.998 68.1257C388.674 69.4784 389.012 71.0933 389.012 72.9702C389.012 74.8641 388.674 76.4959 387.998 77.8656C387.321 79.2352 386.366 80.3005 385.131 81.0615C383.914 81.8055 382.468 82.1775 380.794 82.1775C379.069 82.1775 377.598 81.8055 376.381 81.0615C375.163 80.3005 374.225 79.2352 373.565 77.8656C372.906 76.4959 372.576 74.8726 372.576 72.9956ZM374.783 72.9956C374.783 75.2953 375.29 77.0962 376.305 78.3982C377.319 79.6833 378.816 80.3259 380.794 80.3259C382.688 80.3259 384.159 79.6833 385.208 78.3982C386.273 77.0962 386.805 75.2953 386.805 72.9956C386.805 70.679 386.281 68.8866 385.233 67.6184C384.184 66.3332 382.705 65.6907 380.794 65.6907C378.816 65.6907 377.319 66.3332 376.305 67.6184C375.29 68.8866 374.783 70.679 374.783 72.9956ZM392.828 81.9492V64.0674H400.133C402.01 64.0674 403.465 64.5155 404.496 65.4117C405.528 66.291 406.043 67.5254 406.043 69.1149C406.043 70.1633 405.807 71.0595 405.333 71.8035C404.877 72.5306 404.226 73.0886 403.38 73.4775C402.551 73.8665 401.579 74.0609 400.463 74.0609L400.92 73.7312H401.427C402.12 73.7312 402.737 73.9003 403.279 74.2385C403.837 74.5767 404.276 75.1431 404.598 75.9379L407.134 81.9492H404.826L402.391 76.0393C402.103 75.2784 401.672 74.788 401.097 74.5682C400.522 74.3315 399.804 74.2131 398.941 74.2131H394.934V81.9492H392.828ZM394.934 72.5644H399.829C401.182 72.5644 402.205 72.277 402.898 71.702C403.608 71.1102 403.963 70.2647 403.963 69.1656C403.963 68.0665 403.608 67.2295 402.898 66.6545C402.205 66.0796 401.182 65.7921 399.829 65.7921H394.934V72.5644ZM410.39 81.9492V64.0674H412.496V80.123H421.525V81.9492H410.39ZM424.212 81.9492V64.0674H430.147C432.126 64.0674 433.8 64.414 435.169 65.1073C436.539 65.7837 437.579 66.7898 438.289 68.1257C438.999 69.4446 439.354 71.0679 439.354 72.9956C439.354 74.9064 438.999 76.5297 438.289 77.8656C437.579 79.2014 436.539 80.216 435.169 80.9093C433.8 81.6026 432.126 81.9492 430.147 81.9492H424.212ZM426.317 80.1484H429.995C432.43 80.1484 434.239 79.5565 435.423 78.3728C436.607 77.1723 437.198 75.3799 437.198 72.9956C437.198 70.5945 436.607 68.802 435.423 67.6184C434.239 66.4347 432.43 65.8429 429.995 65.8429H426.317V80.1484ZM449.774 81.9492V64.0674H457.054C458.931 64.0674 460.377 64.5239 461.391 65.437C462.406 66.3332 462.913 67.5846 462.913 69.191C462.913 70.7635 462.406 72.0149 461.391 72.9449C460.377 73.858 458.931 74.3146 457.054 74.3146H451.88V81.9492H449.774ZM451.88 72.5644H456.851C458.153 72.5644 459.134 72.2685 459.793 71.6767C460.47 71.0848 460.808 70.2563 460.808 69.191C460.808 68.1087 460.47 67.2717 459.793 66.6799C459.134 66.0881 458.153 65.7921 456.851 65.7921H451.88V72.5644ZM465.438 72.9956C465.438 71.1017 465.76 69.4784 466.402 68.1257C467.062 66.756 468 65.6991 469.218 64.9551C470.452 64.2111 471.932 63.8391 473.656 63.8391C475.33 63.8391 476.785 64.2111 478.019 64.9551C479.253 65.6991 480.2 66.756 480.86 68.1257C481.536 69.4784 481.874 71.0933 481.874 72.9702C481.874 74.8641 481.536 76.4959 480.86 77.8656C480.183 79.2352 479.228 80.3005 477.994 81.0615C476.776 81.8055 475.33 82.1775 473.656 82.1775C471.932 82.1775 470.46 81.8055 469.243 81.0615C468.025 80.3005 467.087 79.2352 466.427 77.8656C465.768 76.4959 465.438 74.8726 465.438 72.9956ZM467.645 72.9956C467.645 75.2953 468.152 77.0962 469.167 78.3982C470.181 79.6833 471.678 80.3259 473.656 80.3259C475.55 80.3259 477.021 79.6833 478.07 78.3982C479.135 77.0962 479.668 75.2953 479.668 72.9956C479.668 70.679 479.143 68.8866 478.095 67.6184C477.047 66.3332 475.567 65.6907 473.656 65.6907C471.678 65.6907 470.181 66.3332 469.167 67.6184C468.152 68.8866 467.645 70.679 467.645 72.9956ZM485.691 81.9492V64.0674H497.105V65.7921H487.745V72.0064H496.547V73.7565H487.745V80.1991H497.105V81.9492H485.691ZM504.617 81.9492V65.8429H498.302V64.0674H513.013V65.8429H506.723V81.9492H504.617ZM520.802 82.1775C519.365 82.1775 518.08 81.9915 516.947 81.6195C515.814 81.2475 514.825 80.7148 513.979 80.0215L514.74 78.3475C515.332 78.7871 515.924 79.1591 516.516 79.4635C517.125 79.751 517.776 79.9708 518.469 80.123C519.162 80.2583 519.94 80.3259 520.802 80.3259C522.307 80.3259 523.423 80.0469 524.151 79.4889C524.878 78.9309 525.241 78.1868 525.241 77.2568C525.241 76.4621 524.988 75.8533 524.48 75.4306C523.973 75.0078 523.085 74.6697 521.817 74.416L519.154 73.8834C517.514 73.5452 516.288 72.9956 515.476 72.2347C514.681 71.4737 514.284 70.4423 514.284 69.1402C514.284 68.0749 514.554 67.1449 515.095 66.3502C515.653 65.5554 516.431 64.9382 517.429 64.4986C518.427 64.0589 519.585 63.8391 520.904 63.8391C522.172 63.8391 523.33 64.0335 524.379 64.4225C525.427 64.7945 526.323 65.344 527.067 66.0711L526.332 67.6945C525.537 66.9843 524.7 66.477 523.821 66.1726C522.958 65.8513 521.978 65.6907 520.879 65.6907C519.492 65.6907 518.393 65.9951 517.581 66.6038C516.786 67.1956 516.389 68.0073 516.389 69.0388C516.389 69.8673 516.643 70.5184 517.15 70.9918C517.657 71.4484 518.494 71.795 519.661 72.0318L522.35 72.5644C524.074 72.9195 525.343 73.4522 526.154 74.1624C526.966 74.8726 527.372 75.8702 527.372 77.1554C527.372 78.1361 527.101 79.007 526.56 79.7679C526.036 80.5288 525.283 81.1207 524.303 81.5434C523.322 81.9661 522.155 82.1775 520.802 82.1775ZM535.61 81.9492L543.498 64.0674H545.324L553.34 81.9492H551.158L548.926 76.851L549.865 77.3836H538.933L539.947 76.851L537.766 81.9492H535.61ZM544.386 66.477L540.277 76.1154L539.668 75.6589H549.104L548.647 76.1154L544.437 66.477H544.386ZM556.037 81.9492V64.0674H557.686L569.15 79.286H568.567V64.0674H570.52V81.9492H568.897L557.432 66.7306H557.99V81.9492H556.037ZM574.986 81.9492V64.0674H580.921C582.9 64.0674 584.574 64.414 585.943 65.1073C587.313 65.7837 588.353 66.7898 589.063 68.1257C589.773 69.4446 590.128 71.0679 590.128 72.9956C590.128 74.9064 589.773 76.5297 589.063 77.8656C588.353 79.2014 587.313 80.216 585.943 80.9093C584.574 81.6026 582.9 81.9492 580.921 81.9492H574.986ZM577.091 80.1484H580.769C583.204 80.1484 585.013 79.5565 586.197 78.3728C587.381 77.1723 587.973 75.3799 587.973 72.9956C587.973 70.5945 587.381 68.802 586.197 67.6184C585.013 66.4347 583.204 65.8429 580.769 65.8429H577.091V80.1484ZM483.972 113.949L477.732 96.0674H479.939L485.392 112.174H484.504L490.237 96.0674H491.911L497.339 112.174H496.527L502.133 96.0674H504.213L497.922 113.949H496.045L490.769 98.4516H491.302L485.798 113.949H483.972ZM507.315 113.949V96.0674H514.62C516.497 96.0674 517.951 96.5155 518.982 97.4117C520.014 98.291 520.53 99.5254 520.53 101.115C520.53 102.163 520.293 103.059 519.819 103.803C519.363 104.531 518.712 105.089 517.866 105.478C517.038 105.866 516.065 106.061 514.949 106.061L515.406 105.731H515.913C516.607 105.731 517.224 105.9 517.765 106.238C518.323 106.577 518.763 107.143 519.084 107.938L521.62 113.949H519.312L516.877 108.039C516.59 107.278 516.158 106.788 515.584 106.568C515.009 106.331 514.29 106.213 513.428 106.213H509.42V113.949H507.315ZM509.42 104.564H514.315C515.668 104.564 516.691 104.277 517.384 103.702C518.095 103.11 518.45 102.265 518.45 101.166C518.45 100.066 518.095 99.2295 517.384 98.6545C516.691 98.0796 515.668 97.7921 514.315 97.7921H509.42V104.564ZM524.877 113.949V96.0674H526.982V113.949H524.877ZM535.778 113.949V97.8429H529.462V96.0674H544.173V97.8429H537.883V113.949H535.778ZM546.748 113.949V96.0674H558.162V97.7921H548.803V104.006H557.604V105.757H548.803V112.199H558.162V113.949H546.748ZM561.66 113.949V96.0674H568.965C570.842 96.0674 572.296 96.5155 573.327 97.4117C574.359 98.291 574.875 99.5254 574.875 101.115C574.875 102.163 574.638 103.059 574.164 103.803C573.708 104.531 573.057 105.089 572.211 105.478C571.383 105.866 570.41 106.061 569.294 106.061L569.751 105.731H570.258C570.952 105.731 571.569 105.9 572.11 106.238C572.668 106.577 573.108 107.143 573.429 107.938L575.965 113.949H573.657L571.222 108.039C570.935 107.278 570.503 106.788 569.929 106.568C569.354 106.331 568.635 106.213 567.773 106.213H563.765V113.949H561.66ZM563.765 104.564H568.66C570.013 104.564 571.036 104.277 571.729 103.702C572.44 103.11 572.795 102.265 572.795 101.166C572.795 100.066 572.44 99.2295 571.729 98.6545C571.036 98.0796 570.013 97.7921 568.66 97.7921H563.765V104.564ZM585.055 114.177C583.618 114.177 582.333 113.991 581.2 113.619C580.067 113.247 579.078 112.715 578.232 112.022L578.993 110.347C579.585 110.787 580.177 111.159 580.769 111.464C581.378 111.751 582.029 111.971 582.722 112.123C583.415 112.258 584.193 112.326 585.055 112.326C586.56 112.326 587.676 112.047 588.404 111.489C589.131 110.931 589.494 110.187 589.494 109.257C589.494 108.462 589.241 107.853 588.733 107.431C588.226 107.008 587.338 106.67 586.07 106.416L583.407 105.883C581.767 105.545 580.541 104.996 579.729 104.235C578.934 103.474 578.537 102.442 578.537 101.14C578.537 100.075 578.807 99.1449 579.348 98.3502C579.906 97.5554 580.684 96.9382 581.682 96.4986C582.68 96.0589 583.838 95.8391 585.157 95.8391C586.425 95.8391 587.583 96.0335 588.632 96.4225C589.68 96.7945 590.576 97.344 591.32 98.0711L590.585 99.6945C589.79 98.9843 588.953 98.477 588.074 98.1726C587.211 97.8513 586.231 97.6907 585.132 97.6907C583.745 97.6907 582.646 97.9951 581.834 98.6038C581.039 99.1956 580.642 100.007 580.642 101.039C580.642 101.867 580.896 102.518 581.403 102.992C581.91 103.448 582.747 103.795 583.914 104.032L586.603 104.564C588.327 104.92 589.596 105.452 590.407 106.162C591.219 106.873 591.625 107.87 591.625 109.155C591.625 110.136 591.354 111.007 590.813 111.768C590.289 112.529 589.536 113.121 588.556 113.543C587.575 113.966 586.408 114.177 585.055 114.177ZM594.143 113.949V111.362H596.73V113.949H594.143Z" fill="black"/>
</g>
<defs>
<clipPath id="clip0_560_4688">
<rect width="1320" height="200" rx="8" fill="white"/>
</clipPath>
</defs>
</svg>
