<svg width="24" height="24" viewBox="0 0 24 24" fill="none" xmlns="http://www.w3.org/2000/svg">
<circle cx="12" cy="12" r="12" fill="#B0B0B0"/>
<path d="M11.993 18.888C8.969 18.888 6.409 16.84 6.409 13.256V10.968C6.409 7.416 8.969 5.352 11.993 5.352C14.729 5.352 16.665 6.952 17.305 9.576L15.337 10.136C14.873 8.264 13.817 7.272 11.993 7.272C10.057 7.272 8.473 8.552 8.473 11.08V13.16C8.473 15.688 10.057 16.968 11.993 16.968C13.817 16.968 14.873 15.976 15.337 14.104L17.305 14.664C16.665 17.288 14.729 18.888 11.993 18.888Z" fill="white"/>
</svg>
