<svg width="26" height="27" viewBox="0 0 26 27" fill="none" xmlns="http://www.w3.org/2000/svg">
<g id="elements">
<path id="Rectangle 2173" d="M14.252 0.996094H14.5929C18.6694 0.996094 20.7076 0.996094 22.1231 1.99339C22.5287 2.27913 22.8887 2.618 23.1923 2.99971C24.252 4.33193 24.252 6.25029 24.252 10.087V13.2688C24.252 16.9728 24.252 18.8248 23.6658 20.3039C22.7234 22.6818 20.7305 24.5575 18.204 25.4444C16.6324 25.9961 14.6647 25.9961 10.7292 25.9961C8.48039 25.9961 7.35597 25.9961 6.45792 25.6808C5.01419 25.174 3.87539 24.1022 3.33691 22.7434C3.00195 21.8982 3.00195 20.8399 3.00195 18.7234V13.4961" stroke="#FF9A15" stroke-width="2" stroke-linecap="round" stroke-linejoin="round"/>
<path id="Vector" d="M24.25 13.4961C24.25 15.7973 22.3845 17.6628 20.0833 17.6628C19.2511 17.6628 18.27 17.5169 17.4608 17.7337C16.7419 17.9264 16.1803 18.4879 15.9877 19.2069C15.7708 20.016 15.9167 20.9972 15.9167 21.8294C15.9167 24.1306 14.0512 25.9961 11.75 25.9961" stroke="#FF9A15" stroke-width="2" stroke-linecap="round" stroke-linejoin="round"/>
<path id="Vector_2" d="M11.752 5.99609L1.75195 5.99609M6.75195 0.996094V10.9961" stroke="#FF9A15" stroke-width="2" stroke-linecap="round"/>
</g>
</svg>
