<svg width="678" height="128" viewBox="0 0 678 128" fill="none" xmlns="http://www.w3.org/2000/svg">
<g filter="url(#filter0_d_0_1)">
<rect x="4" width="670" height="120" rx="5" fill="#B9B9B9"/>
</g>
<path d="M242.139 53.136C241.707 53.488 241.219 53.792 240.675 54.048C240.131 54.304 239.547 54.512 238.923 54.672C238.299 54.848 237.651 54.976 236.979 55.056C236.307 55.152 235.643 55.2 234.987 55.2H232.059C231.787 55.2 231.619 55.168 231.555 55.104C231.507 55.04 231.483 54.888 231.483 54.648V37.728C231.483 37.424 231.507 37.248 231.555 37.2C231.619 37.136 231.803 37.104 232.107 37.104H236.187C239.307 37.104 241.627 37.984 243.147 39.744C243.819 40.512 244.315 41.408 244.635 42.432C244.971 43.44 245.139 44.664 245.139 46.104C245.139 47.592 244.875 48.944 244.347 50.16C243.835 51.376 243.099 52.368 242.139 53.136ZM241.083 41.544C240.059 40.28 238.411 39.648 236.139 39.648H234.267V52.632H235.347C236.275 52.632 237.147 52.52 237.963 52.296C238.779 52.056 239.499 51.68 240.123 51.168C240.843 50.624 241.395 49.928 241.779 49.08C242.179 48.216 242.379 47.192 242.379 46.008C242.379 45.048 242.275 44.2 242.067 43.464C241.859 42.712 241.531 42.072 241.083 41.544ZM258.905 49.152C258.905 49.28 258.865 49.376 258.785 49.44C258.721 49.504 258.649 49.536 258.569 49.536H250.673C250.753 50.608 251.089 51.488 251.681 52.176C252.273 52.848 253.081 53.184 254.105 53.184C254.633 53.184 255.233 53.12 255.905 52.992C256.577 52.848 257.193 52.608 257.753 52.272C257.865 52.208 257.937 52.216 257.969 52.296C258.001 52.376 258.017 52.48 258.017 52.608V54.264C258.017 54.408 257.993 54.52 257.945 54.6C257.897 54.68 257.801 54.76 257.657 54.84C257.177 55.096 256.609 55.28 255.953 55.392C255.313 55.504 254.657 55.56 253.985 55.56C252.001 55.56 250.497 54.968 249.473 53.784C248.465 52.584 247.961 50.832 247.961 48.528C247.961 47.664 248.073 46.816 248.297 45.984C248.521 45.152 248.857 44.408 249.305 43.752C249.769 43.096 250.353 42.568 251.057 42.168C251.761 41.768 252.593 41.568 253.553 41.568C254.529 41.568 255.353 41.752 256.025 42.12C256.713 42.488 257.273 42.984 257.705 43.608C258.137 44.232 258.449 44.96 258.641 45.792C258.833 46.624 258.929 47.512 258.929 48.456C258.929 48.568 258.921 48.696 258.905 48.84C258.905 48.984 258.905 49.088 258.905 49.152ZM253.649 43.872C253.217 43.872 252.833 43.968 252.497 44.16C252.161 44.352 251.873 44.6 251.633 44.904C251.393 45.208 251.193 45.56 251.033 45.96C250.889 46.36 250.785 46.76 250.721 47.16H256.217C256.217 46.84 256.161 46.488 256.049 46.104C255.953 45.72 255.801 45.368 255.593 45.048C255.385 44.712 255.121 44.432 254.801 44.208C254.481 43.984 254.097 43.872 253.649 43.872ZM267.063 54.936C267.031 55.032 266.999 55.088 266.967 55.104C266.935 55.136 266.871 55.152 266.775 55.152H264.711C264.615 55.152 264.543 55.136 264.495 55.104C264.463 55.088 264.431 55.032 264.399 54.936L260.031 42.192C259.999 42.112 259.999 42.048 260.031 42C260.063 41.952 260.167 41.928 260.343 41.928H262.431C262.511 41.928 262.575 41.944 262.623 41.976C262.671 41.992 262.711 42.04 262.743 42.12L265.743 51.168L268.719 42.12C268.751 42.04 268.791 41.992 268.839 41.976C268.903 41.944 268.975 41.928 269.055 41.928H271.167C271.343 41.928 271.447 41.952 271.479 42C271.511 42.048 271.511 42.112 271.479 42.192L267.063 54.936ZM280.734 52.176C280.638 52.24 280.518 52.28 280.374 52.296C280.23 52.312 280.118 52.264 280.038 52.152L279.15 51.024C279.07 50.928 279.038 50.808 279.054 50.664C279.07 50.52 279.142 50.408 279.27 50.328C280.054 49.816 280.782 49.256 281.454 48.648C282.142 48.024 282.758 47.384 283.302 46.728C283.862 46.056 284.35 45.376 284.766 44.688C285.198 44 285.542 43.32 285.798 42.648C285.878 42.456 285.926 42.312 285.942 42.216C285.958 42.104 285.822 42.048 285.534 42.048H280.566C280.486 42.048 280.422 42.016 280.374 41.952C280.326 41.872 280.302 41.784 280.302 41.688V40.2C280.302 39.976 280.398 39.864 280.59 39.864H287.094C287.798 39.864 288.302 39.96 288.606 40.152C288.91 40.328 289.062 40.616 289.062 41.016C289.062 41.144 289.03 41.32 288.966 41.544C288.918 41.768 288.878 41.928 288.846 42.024C288.606 42.696 288.326 43.36 288.006 44.016C287.702 44.656 287.35 45.28 286.95 45.888C287.206 46.24 287.494 46.6 287.814 46.968C288.15 47.32 288.494 47.664 288.846 48C289.198 48.336 289.534 48.648 289.854 48.936C290.19 49.208 290.486 49.44 290.742 49.632C290.918 49.76 291.006 49.888 291.006 50.016C291.006 50.128 290.958 50.24 290.862 50.352L289.926 51.504C289.846 51.616 289.734 51.672 289.59 51.672C289.446 51.656 289.31 51.608 289.182 51.528C288.606 51.112 287.982 50.584 287.31 49.944C286.654 49.288 286.046 48.608 285.486 47.904C284.814 48.72 284.078 49.488 283.278 50.208C282.494 50.928 281.646 51.584 280.734 52.176ZM294.438 56.544C294.438 56.768 294.334 56.88 294.126 56.88H292.182C291.942 56.88 291.822 56.768 291.822 56.544V46.512H289.254C289.174 46.512 289.094 46.48 289.014 46.416C288.95 46.352 288.918 46.28 288.918 46.2V44.544C288.918 44.464 288.95 44.4 289.014 44.352C289.094 44.288 289.174 44.256 289.254 44.256H291.822V35.712C291.822 35.504 291.942 35.4 292.182 35.4H294.126C294.334 35.4 294.438 35.504 294.438 35.712V56.544ZM299.022 57.528C299.022 57.736 298.918 57.84 298.71 57.84H296.622C296.414 57.84 296.31 57.736 296.31 57.528V35.328C296.31 35.12 296.422 35.016 296.646 35.016H298.71C298.918 35.016 299.022 35.12 299.022 35.328V57.528ZM287.742 38.04C287.742 38.136 287.702 38.224 287.622 38.304C287.558 38.384 287.47 38.424 287.358 38.424H282.366C282.286 38.424 282.198 38.392 282.102 38.328C282.022 38.264 281.982 38.176 281.982 38.064V36.672C281.982 36.56 282.022 36.472 282.102 36.408C282.198 36.344 282.286 36.312 282.366 36.312H287.358C287.454 36.312 287.542 36.352 287.622 36.432C287.702 36.512 287.742 36.6 287.742 36.696V38.04ZM317.849 52.896C317.849 52.768 317.825 52.688 317.777 52.656C317.745 52.608 317.665 52.584 317.537 52.584H309.305C309.177 52.584 309.089 52.6 309.041 52.632C309.009 52.664 308.993 52.744 308.993 52.872V54.912C308.993 55.056 309.009 55.144 309.041 55.176C309.089 55.208 309.177 55.224 309.305 55.224H317.537C317.665 55.224 317.745 55.208 317.777 55.176C317.825 55.144 317.849 55.056 317.849 54.912V52.896ZM320.609 55.752C320.609 56.36 320.473 56.792 320.201 57.048C319.929 57.304 319.489 57.432 318.881 57.432H308.081C307.361 57.432 306.873 57.304 306.617 57.048C306.377 56.792 306.257 56.352 306.257 55.728V52.104C306.257 51.496 306.385 51.056 306.641 50.784C306.913 50.512 307.353 50.376 307.961 50.376H318.761C319.481 50.376 319.969 50.512 320.225 50.784C320.481 51.04 320.609 51.488 320.609 52.128V55.752ZM314.417 43.944V42.288C314.417 42.208 314.449 42.144 314.513 42.096C314.593 42.032 314.673 42 314.753 42H317.825V35.328C317.825 35.12 317.937 35.016 318.161 35.016H320.273C320.353 35.016 320.425 35.048 320.489 35.112C320.569 35.176 320.609 35.248 320.609 35.328V49.08C320.609 49.16 320.569 49.24 320.489 49.32C320.425 49.384 320.353 49.416 320.273 49.416H318.161C318.065 49.416 317.985 49.384 317.921 49.32C317.857 49.24 317.825 49.16 317.825 49.08V44.232H314.753C314.673 44.232 314.593 44.208 314.513 44.16C314.449 44.096 314.417 44.024 314.417 43.944ZM315.449 40.056C315.449 40.152 315.409 40.24 315.329 40.32C315.265 40.384 315.185 40.416 315.089 40.416H302.441C302.361 40.416 302.273 40.376 302.177 40.296C302.097 40.216 302.057 40.128 302.057 40.032V38.688C302.057 38.608 302.105 38.528 302.201 38.448C302.297 38.368 302.385 38.328 302.465 38.328H315.089C315.185 38.328 315.265 38.368 315.329 38.448C315.409 38.512 315.449 38.592 315.449 38.688V40.056ZM312.281 36.936C312.281 37.048 312.241 37.144 312.161 37.224C312.097 37.304 312.001 37.344 311.873 37.344H305.729C305.665 37.344 305.585 37.312 305.489 37.248C305.409 37.184 305.369 37.088 305.369 36.96V35.592C305.369 35.48 305.409 35.392 305.489 35.328C305.585 35.264 305.665 35.232 305.729 35.232H311.873C311.985 35.232 312.081 35.272 312.161 35.352C312.241 35.432 312.281 35.52 312.281 35.616V36.936ZM308.825 43.32C308.073 43.32 307.457 43.48 306.977 43.8C306.497 44.12 306.257 44.56 306.257 45.12C306.257 45.68 306.497 46.136 306.977 46.488C307.457 46.84 308.073 47.016 308.825 47.016C309.593 47.016 310.209 46.84 310.673 46.488C311.153 46.136 311.393 45.68 311.393 45.12C311.393 44.56 311.153 44.12 310.673 43.8C310.209 43.48 309.593 43.32 308.825 43.32ZM308.825 41.208C309.545 41.208 310.217 41.304 310.841 41.496C311.481 41.672 312.033 41.936 312.497 42.288C312.977 42.624 313.345 43.032 313.601 43.512C313.873 43.992 314.009 44.528 314.009 45.12C314.009 45.712 313.873 46.256 313.601 46.752C313.329 47.232 312.961 47.648 312.497 48C312.033 48.336 311.481 48.6 310.841 48.792C310.217 48.984 309.537 49.08 308.801 49.08C308.081 49.08 307.409 48.984 306.785 48.792C306.161 48.6 305.617 48.336 305.153 48C304.689 47.648 304.321 47.232 304.049 46.752C303.793 46.256 303.665 45.712 303.665 45.12C303.665 44.528 303.793 43.992 304.049 43.512C304.321 43.032 304.689 42.624 305.153 42.288C305.633 41.936 306.185 41.672 306.809 41.496C307.433 41.304 308.105 41.208 308.825 41.208ZM345.411 48C345.411 48.08 345.371 48.16 345.291 48.24C345.211 48.32 345.131 48.36 345.051 48.36H324.147C324.051 48.36 323.971 48.32 323.907 48.24C323.843 48.16 323.811 48.08 323.811 48V46.488C323.811 46.392 323.843 46.312 323.907 46.248C323.971 46.168 324.051 46.128 324.147 46.128H329.331V42.864C328.595 42.496 328.027 42.04 327.627 41.496C327.227 40.952 327.027 40.336 327.027 39.648C327.027 38.992 327.211 38.4 327.579 37.872C327.963 37.344 328.491 36.896 329.163 36.528C329.835 36.144 330.635 35.856 331.563 35.664C332.507 35.456 333.539 35.352 334.659 35.352C335.779 35.352 336.803 35.456 337.731 35.664C338.659 35.856 339.459 36.144 340.131 36.528C340.803 36.896 341.323 37.344 341.691 37.872C342.075 38.4 342.267 38.992 342.267 39.648C342.267 40.352 342.059 40.984 341.643 41.544C341.227 42.088 340.635 42.552 339.867 42.936V46.128H345.051C345.131 46.128 345.211 46.168 345.291 46.248C345.371 46.328 345.411 46.408 345.411 46.488V48ZM342.243 53.784C342.243 54.392 342.067 54.944 341.715 55.44C341.379 55.936 340.883 56.368 340.227 56.736C339.587 57.104 338.787 57.384 337.827 57.576C336.883 57.784 335.811 57.888 334.611 57.888C333.411 57.888 332.331 57.784 331.371 57.576C330.427 57.384 329.627 57.104 328.971 56.736C328.331 56.368 327.835 55.936 327.483 55.44C327.147 54.944 326.979 54.392 326.979 53.784C326.979 53.192 327.147 52.648 327.483 52.152C327.835 51.64 328.331 51.208 328.971 50.856C329.627 50.488 330.427 50.208 331.371 50.016C332.331 49.808 333.411 49.704 334.611 49.704C335.811 49.704 336.883 49.808 337.827 50.016C338.787 50.208 339.587 50.488 340.227 50.856C340.883 51.208 341.379 51.64 341.715 52.152C342.067 52.648 342.243 53.192 342.243 53.784ZM334.659 37.56C333.955 37.544 333.307 37.592 332.715 37.704C332.139 37.8 331.643 37.944 331.227 38.136C330.811 38.328 330.483 38.552 330.243 38.808C330.003 39.064 329.883 39.344 329.883 39.648C329.883 39.952 330.003 40.232 330.243 40.488C330.483 40.744 330.811 40.968 331.227 41.16C331.643 41.352 332.139 41.504 332.715 41.616C333.307 41.712 333.955 41.76 334.659 41.76C335.347 41.76 335.979 41.712 336.555 41.616C337.147 41.504 337.651 41.352 338.067 41.16C338.483 40.968 338.811 40.744 339.051 40.488C339.291 40.232 339.411 39.952 339.411 39.648C339.411 39.344 339.291 39.072 339.051 38.832C338.811 38.576 338.483 38.36 338.067 38.184C337.651 37.992 337.147 37.84 336.555 37.728C335.979 37.616 335.347 37.56 334.659 37.56ZM334.611 51.792C333.811 51.792 333.107 51.848 332.499 51.96C331.891 52.072 331.379 52.224 330.963 52.416C330.563 52.608 330.251 52.824 330.027 53.064C329.819 53.304 329.715 53.552 329.715 53.808C329.715 54.064 329.819 54.312 330.027 54.552C330.251 54.792 330.563 55.008 330.963 55.2C331.379 55.392 331.891 55.544 332.499 55.656C333.107 55.768 333.811 55.824 334.611 55.824C335.395 55.824 336.091 55.768 336.699 55.656C337.323 55.544 337.835 55.392 338.235 55.2C338.651 55.008 338.963 54.792 339.171 54.552C339.395 54.312 339.507 54.064 339.507 53.808C339.507 53.552 339.395 53.304 339.171 53.064C338.963 52.824 338.651 52.608 338.235 52.416C337.835 52.224 337.323 52.072 336.699 51.96C336.091 51.848 335.395 51.792 334.611 51.792ZM334.659 43.944C334.179 43.944 333.723 43.928 333.291 43.896C332.875 43.864 332.459 43.816 332.043 43.752V46.128H337.155V43.752C336.755 43.816 336.347 43.864 335.931 43.896C335.531 43.928 335.107 43.944 334.659 43.944ZM374.708 49.296C374.708 49.376 374.668 49.464 374.588 49.56C374.508 49.64 374.428 49.68 374.348 49.68H365.324V57.288C365.324 57.512 365.212 57.624 364.988 57.624H362.9C362.676 57.624 362.564 57.512 362.564 57.288V49.68H353.444C353.348 49.68 353.268 49.64 353.204 49.56C353.14 49.464 353.108 49.376 353.108 49.296V47.736C353.108 47.64 353.14 47.56 353.204 47.496C353.268 47.416 353.348 47.376 353.444 47.376H374.348C374.428 47.376 374.508 47.416 374.588 47.496C374.668 47.576 374.708 47.656 374.708 47.736V49.296ZM371.492 43.104C371.492 43.712 371.356 44.144 371.084 44.4C370.828 44.656 370.396 44.784 369.788 44.784H358.124C357.404 44.784 356.916 44.656 356.66 44.4C356.42 44.144 356.3 43.704 356.3 43.08V37.104C356.3 36.496 356.428 36.072 356.684 35.832C356.956 35.576 357.396 35.448 358.004 35.448H369.668C370.388 35.448 370.868 35.568 371.108 35.808C371.364 36.048 371.492 36.488 371.492 37.128V43.104ZM368.732 38.064C368.732 37.936 368.708 37.856 368.66 37.824C368.628 37.776 368.548 37.752 368.42 37.752H359.396C359.268 37.752 359.18 37.768 359.132 37.8C359.1 37.832 359.084 37.912 359.084 38.04V42.144C359.084 42.304 359.1 42.4 359.132 42.432C359.18 42.464 359.268 42.48 359.396 42.48H368.42C368.548 42.48 368.628 42.464 368.66 42.432C368.708 42.4 368.732 42.304 368.732 42.144V38.064ZM380.55 48.024C380.198 48.024 379.91 48 379.686 47.952C379.462 47.904 379.286 47.816 379.158 47.688C379.03 47.56 378.942 47.4 378.894 47.208C378.846 47 378.822 46.736 378.822 46.416V42.576C378.822 42.256 378.846 42 378.894 41.808C378.942 41.6 379.03 41.44 379.158 41.328C379.286 41.2 379.462 41.12 379.686 41.088C379.91 41.04 380.198 41.016 380.55 41.016H391.062C391.222 41.016 391.318 41 391.35 40.968C391.398 40.92 391.422 40.808 391.422 40.632V38.784C391.422 38.608 391.398 38.512 391.35 38.496C391.318 38.464 391.222 38.448 391.062 38.448H379.23C379.15 38.448 379.078 38.416 379.014 38.352C378.95 38.272 378.918 38.192 378.918 38.112V36.504C378.918 36.424 378.95 36.352 379.014 36.288C379.078 36.224 379.15 36.192 379.23 36.192H392.382C393.054 36.192 393.51 36.304 393.75 36.528C393.99 36.736 394.11 37.152 394.11 37.776V41.64C394.11 42.264 393.99 42.688 393.75 42.912C393.51 43.12 393.054 43.224 392.382 43.224H381.846C381.686 43.224 381.59 43.24 381.558 43.272C381.526 43.304 381.51 43.4 381.51 43.56V45.432C381.51 45.608 381.526 45.72 381.558 45.768C381.606 45.8 381.71 45.816 381.87 45.816H394.302C394.382 45.816 394.454 45.848 394.518 45.912C394.598 45.96 394.638 46.024 394.638 46.104V47.712C394.638 47.792 394.598 47.864 394.518 47.928C394.438 47.992 394.366 48.024 394.302 48.024H391.182V51.648H396.918C396.998 51.648 397.078 51.696 397.158 51.792C397.238 51.872 397.278 51.952 397.278 52.032V53.544C397.278 53.624 397.238 53.704 397.158 53.784C397.078 53.864 396.998 53.904 396.918 53.904H376.014C375.918 53.904 375.838 53.864 375.774 53.784C375.71 53.704 375.678 53.624 375.678 53.544V52.032C375.678 51.936 375.71 51.848 375.774 51.768C375.838 51.688 375.918 51.648 376.014 51.648H381.75V48.024H380.55ZM388.47 51.648V48.024H384.462V51.648H388.47ZM423.383 54.048C423.383 54.608 423.207 55.128 422.855 55.608C422.519 56.088 422.023 56.496 421.367 56.832C420.727 57.184 419.927 57.456 418.967 57.648C418.023 57.856 416.951 57.96 415.751 57.96C414.551 57.96 413.471 57.856 412.511 57.648C411.567 57.456 410.767 57.184 410.111 56.832C409.471 56.496 408.975 56.088 408.623 55.608C408.287 55.128 408.119 54.608 408.119 54.048C408.119 53.072 408.663 52.232 409.751 51.528C410.839 50.808 412.383 50.376 414.383 50.232V48.648H405.311C405.087 48.648 404.975 48.528 404.975 48.288V46.752C404.975 46.656 405.007 46.576 405.071 46.512C405.135 46.432 405.215 46.392 405.311 46.392H426.191C426.271 46.392 426.351 46.432 426.431 46.512C426.511 46.592 426.551 46.672 426.551 46.752V48.288C426.551 48.384 426.511 48.472 426.431 48.552C426.351 48.616 426.271 48.648 426.191 48.648H417.143V50.232C419.127 50.376 420.663 50.808 421.751 51.528C422.839 52.232 423.383 53.072 423.383 54.048ZM422.039 39.24C422.039 39.512 421.951 39.776 421.775 40.032C421.615 40.288 421.415 40.52 421.175 40.728C420.919 40.984 420.599 41.232 420.215 41.472C419.831 41.712 419.407 41.944 418.943 42.168C419.711 42.376 420.559 42.568 421.487 42.744C422.415 42.92 423.295 43.064 424.127 43.176C424.255 43.208 424.343 43.28 424.391 43.392C424.439 43.488 424.447 43.584 424.415 43.68L424.031 44.928C423.999 45.008 423.927 45.088 423.815 45.168C423.719 45.232 423.599 45.248 423.455 45.216C422.287 45.04 421.023 44.808 419.663 44.52C418.319 44.216 417.023 43.88 415.775 43.512C414.607 43.912 413.375 44.28 412.079 44.616C410.783 44.952 409.487 45.232 408.191 45.456C408.079 45.488 407.959 45.488 407.831 45.456C407.703 45.408 407.623 45.336 407.591 45.24L407.135 43.872C407.103 43.776 407.119 43.68 407.183 43.584C407.247 43.472 407.335 43.4 407.447 43.368C409.367 43.016 411.159 42.608 412.823 42.144C414.503 41.664 416.015 41.112 417.359 40.488C417.503 40.424 417.591 40.376 417.623 40.344C417.671 40.296 417.679 40.264 417.647 40.248C417.631 40.216 417.591 40.2 417.527 40.2C417.463 40.184 417.407 40.176 417.359 40.176H409.079C408.855 40.176 408.743 40.072 408.743 39.864V38.4C408.743 38.208 408.855 38.112 409.079 38.112H419.975C420.679 38.112 421.199 38.232 421.535 38.472C421.871 38.696 422.039 38.952 422.039 39.24ZM415.751 52.224C414.151 52.224 412.935 52.416 412.103 52.8C411.271 53.168 410.855 53.592 410.855 54.072C410.855 54.552 411.271 54.984 412.103 55.368C412.935 55.752 414.151 55.944 415.751 55.944C417.351 55.944 418.567 55.752 419.399 55.368C420.231 54.984 420.647 54.552 420.647 54.072C420.647 53.592 420.231 53.168 419.399 52.8C418.567 52.416 417.351 52.224 415.751 52.224ZM418.991 36.768C418.991 36.864 418.951 36.952 418.871 37.032C418.791 37.112 418.695 37.152 418.583 37.152H412.439C412.375 37.152 412.295 37.12 412.199 37.056C412.119 36.992 412.079 36.904 412.079 36.792V35.472C412.079 35.36 412.119 35.272 412.199 35.208C412.295 35.144 412.375 35.112 412.439 35.112H418.583C418.679 35.112 418.767 35.152 418.847 35.232C418.943 35.312 418.991 35.4 418.991 35.496V36.768ZM429.921 49.032C429.825 49.08 429.697 49.104 429.537 49.104C429.393 49.104 429.273 49.016 429.177 48.84L428.457 47.664C428.377 47.536 428.353 47.408 428.385 47.28C428.433 47.136 428.529 47.024 428.673 46.944C429.553 46.512 430.401 46 431.217 45.408C432.033 44.816 432.769 44.184 433.425 43.512C434.097 42.84 434.673 42.152 435.153 41.448C435.649 40.744 436.017 40.064 436.257 39.408C436.321 39.248 436.345 39.12 436.329 39.024C436.329 38.912 436.193 38.856 435.921 38.856H430.017C429.905 38.856 429.817 38.824 429.753 38.76C429.705 38.68 429.681 38.592 429.681 38.496V36.888C429.681 36.664 429.801 36.552 430.041 36.552H437.649C438.353 36.552 438.873 36.688 439.209 36.96C439.545 37.216 439.673 37.6 439.593 38.112C439.561 38.288 439.521 38.464 439.473 38.64C439.425 38.816 439.377 38.976 439.329 39.12C439.153 39.728 438.897 40.352 438.561 40.992C438.225 41.616 437.833 42.24 437.385 42.864C437.673 43.184 438.001 43.504 438.369 43.824C438.737 44.144 439.113 44.456 439.497 44.76C439.897 45.048 440.289 45.32 440.673 45.576C441.057 45.832 441.409 46.048 441.729 46.224C442.049 46.384 442.113 46.624 441.921 46.944L441.129 48.168C440.953 48.424 440.705 48.472 440.385 48.312C440.097 48.168 439.753 47.968 439.353 47.712C438.969 47.44 438.561 47.144 438.129 46.824C437.713 46.488 437.297 46.136 436.881 45.768C436.481 45.4 436.121 45.048 435.801 44.712C434.985 45.576 434.081 46.376 433.089 47.112C432.097 47.848 431.041 48.488 429.921 49.032ZM439.977 43.056V41.4C439.977 41.32 440.009 41.256 440.073 41.208C440.153 41.144 440.233 41.112 440.313 41.112H444.129V35.328C444.129 35.12 444.233 35.016 444.441 35.016H446.577C446.785 35.016 446.889 35.12 446.889 35.328V50.904C446.889 51.112 446.785 51.216 446.577 51.216H444.441C444.233 51.216 444.129 51.112 444.129 50.904V43.368H440.313C440.233 43.368 440.153 43.336 440.073 43.272C440.009 43.208 439.977 43.136 439.977 43.056ZM447.585 57.096C447.585 57.192 447.545 57.264 447.465 57.312C447.401 57.36 447.329 57.384 447.249 57.384H434.745C434.025 57.384 433.537 57.256 433.281 57C433.041 56.744 432.921 56.304 432.921 55.68V50.448C432.921 50.368 432.953 50.296 433.017 50.232C433.097 50.152 433.177 50.112 433.257 50.112H435.321C435.417 50.112 435.497 50.152 435.561 50.232C435.641 50.296 435.681 50.368 435.681 50.448V54.696C435.681 54.856 435.713 54.96 435.777 55.008C435.841 55.056 435.961 55.08 436.137 55.08H447.249C447.329 55.08 447.401 55.112 447.465 55.176C447.545 55.24 447.585 55.312 447.585 55.392V57.096ZM254.881 86.488C254.753 86.488 254.641 86.416 254.545 86.272C253.041 84.416 251.945 82.544 251.257 80.656C250.585 78.752 250.249 76.784 250.249 74.752C250.249 72.736 250.585 70.784 251.257 68.896C251.945 66.992 253.041 65.104 254.545 63.232C254.641 63.088 254.753 63.016 254.881 63.016H256.657C256.865 63.016 256.913 63.104 256.801 63.28C255.521 65.296 254.577 67.248 253.969 69.136C253.361 71.008 253.057 72.88 253.057 74.752C253.057 76.64 253.353 78.52 253.945 80.392C254.553 82.264 255.505 84.208 256.801 86.224C256.849 86.288 256.865 86.344 256.849 86.392C256.833 86.456 256.769 86.488 256.657 86.488H254.881ZM276.92 85.48C276.92 85.688 276.816 85.792 276.608 85.792H274.472C274.264 85.792 274.16 85.688 274.16 85.48V63.328C274.16 63.12 274.264 63.016 274.472 63.016H276.608C276.816 63.016 276.92 63.12 276.92 63.328V85.48ZM268.256 72.352C268.256 71.616 268.184 70.92 268.04 70.264C267.896 69.592 267.688 69.008 267.416 68.512C267.144 68.016 266.808 67.624 266.408 67.336C266.024 67.048 265.576 66.904 265.064 66.904C264.552 66.904 264.096 67.048 263.696 67.336C263.312 67.624 262.984 68.016 262.712 68.512C262.44 69.008 262.232 69.592 262.088 70.264C261.944 70.92 261.872 71.616 261.872 72.352C261.872 73.072 261.944 73.768 262.088 74.44C262.232 75.096 262.44 75.68 262.712 76.192C262.984 76.688 263.312 77.088 263.696 77.392C264.096 77.68 264.552 77.824 265.064 77.824C265.576 77.824 266.024 77.68 266.408 77.392C266.808 77.088 267.144 76.688 267.416 76.192C267.688 75.68 267.896 75.096 268.04 74.44C268.184 73.768 268.256 73.072 268.256 72.352ZM265.064 80.272C264.152 80.272 263.328 80.08 262.592 79.696C261.856 79.312 261.232 78.776 260.72 78.088C260.224 77.384 259.84 76.544 259.568 75.568C259.296 74.592 259.16 73.52 259.16 72.352C259.16 71.152 259.296 70.064 259.568 69.088C259.84 68.112 260.224 67.288 260.72 66.616C261.232 65.928 261.856 65.4 262.592 65.032C263.328 64.648 264.152 64.456 265.064 64.456C265.992 64.456 266.816 64.648 267.536 65.032C268.272 65.4 268.888 65.928 269.384 66.616C269.896 67.288 270.288 68.112 270.56 69.088C270.832 70.064 270.968 71.152 270.968 72.352C270.968 73.552 270.832 74.64 270.56 75.616C270.288 76.592 269.896 77.424 269.384 78.112C268.888 78.8 268.272 79.336 267.536 79.72C266.816 80.088 265.992 80.272 265.064 80.272ZM299.658 85.48C299.658 85.688 299.546 85.792 299.322 85.792H297.21C296.986 85.792 296.874 85.688 296.874 85.48V73.648H292.458C292.378 73.648 292.298 73.624 292.218 73.576C292.154 73.512 292.122 73.44 292.122 73.36V71.656C292.122 71.576 292.154 71.512 292.218 71.464C292.298 71.4 292.378 71.368 292.458 71.368H296.874V63.328C296.874 63.12 296.986 63.016 297.21 63.016H299.322C299.546 63.016 299.658 63.12 299.658 63.328V85.48ZM292.41 66.616C292.138 69.736 291.162 72.48 289.482 74.848C287.802 77.216 285.546 79.232 282.714 80.896C282.586 80.976 282.442 81.008 282.282 80.992C282.138 80.96 282.026 80.88 281.946 80.752L281.106 79.48C281.026 79.352 281.002 79.232 281.034 79.12C281.066 78.992 281.146 78.896 281.274 78.832C283.658 77.424 285.53 75.8 286.89 73.96C288.266 72.12 289.162 70.104 289.578 67.912C289.658 67.592 289.642 67.384 289.53 67.288C289.434 67.176 289.242 67.12 288.954 67.12H282.282C282.074 67.12 281.97 67.008 281.97 66.784V65.104C281.97 64.912 282.074 64.816 282.282 64.816H290.706C291.426 64.816 291.898 64.968 292.122 65.272C292.362 65.56 292.458 66.008 292.41 66.616ZM331.067 74.152C331.067 74.232 331.027 74.312 330.947 74.392C330.867 74.456 330.787 74.488 330.707 74.488H321.635V76.312H326.051C326.707 76.312 327.139 76.416 327.347 76.624C327.571 76.816 327.683 77.184 327.683 77.728V80.488C327.683 81.048 327.571 81.424 327.347 81.616C327.139 81.808 326.707 81.904 326.051 81.904H315.947C315.819 81.904 315.739 81.928 315.707 81.976C315.675 82.008 315.659 82.096 315.659 82.24V82.984C315.659 83.128 315.675 83.208 315.707 83.224C315.739 83.256 315.827 83.272 315.971 83.272H327.899C327.979 83.272 328.059 83.304 328.139 83.368C328.219 83.432 328.259 83.512 328.259 83.608V85.168C328.259 85.248 328.219 85.32 328.139 85.384C328.059 85.464 327.987 85.504 327.923 85.504H314.555C313.931 85.504 313.507 85.392 313.283 85.168C313.059 84.944 312.947 84.576 312.947 84.064V81.328C312.947 80.816 313.051 80.448 313.259 80.224C313.483 80 313.907 79.888 314.531 79.888H324.707C324.835 79.888 324.915 79.88 324.947 79.864C324.979 79.832 324.995 79.736 324.995 79.576V78.904C324.995 78.728 324.979 78.624 324.947 78.592C324.915 78.56 324.827 78.544 324.683 78.544H313.211C313.131 78.544 313.051 78.512 312.971 78.448C312.907 78.384 312.875 78.312 312.875 78.232V76.624C312.875 76.544 312.907 76.472 312.971 76.408C313.051 76.344 313.131 76.312 313.211 76.312H318.875V74.488H309.803C309.579 74.488 309.467 74.376 309.467 74.152V72.664C309.467 72.568 309.499 72.48 309.563 72.4C309.627 72.32 309.707 72.28 309.803 72.28H330.707C330.787 72.28 330.867 72.328 330.947 72.424C331.027 72.504 331.067 72.584 331.067 72.664V74.152ZM328.067 70.36C328.067 70.456 328.027 70.528 327.947 70.576C327.883 70.624 327.811 70.648 327.731 70.648H314.891C314.155 70.648 313.659 70.52 313.403 70.264C313.163 70.008 313.043 69.568 313.043 68.944V63.208C313.043 63.128 313.075 63.056 313.139 62.992C313.219 62.912 313.299 62.872 313.379 62.872H315.467C315.563 62.872 315.643 62.912 315.707 62.992C315.787 63.056 315.827 63.128 315.827 63.208V68.008C315.827 68.168 315.859 68.272 315.923 68.32C315.987 68.368 316.107 68.392 316.283 68.392H327.731C327.811 68.392 327.883 68.424 327.947 68.488C328.027 68.552 328.067 68.624 328.067 68.704V70.36ZM351.526 85.48C351.526 85.688 351.422 85.792 351.214 85.792H349.078C348.87 85.792 348.766 85.688 348.766 85.48V73.528H344.854C344.774 73.528 344.702 73.504 344.638 73.456C344.574 73.392 344.542 73.32 344.542 73.24V71.536C344.542 71.456 344.574 71.384 344.638 71.32C344.702 71.256 344.774 71.224 344.854 71.224H348.766V63.328C348.766 63.12 348.87 63.016 349.078 63.016H351.214C351.422 63.016 351.526 63.12 351.526 63.328V85.48ZM345.766 79.168C345.782 79.248 345.75 79.336 345.67 79.432C345.59 79.512 345.486 79.568 345.358 79.6C344.718 79.744 343.966 79.864 343.102 79.96C342.254 80.056 341.382 80.136 340.486 80.2C339.606 80.264 338.742 80.304 337.894 80.32C337.046 80.336 336.31 80.336 335.686 80.32C334.982 80.288 334.494 80.144 334.222 79.888C333.966 79.632 333.838 79.2 333.838 78.592V72.784C333.838 72.208 333.974 71.792 334.246 71.536C334.534 71.28 334.958 71.152 335.518 71.152H340.318C340.446 71.152 340.534 71.136 340.582 71.104C340.63 71.056 340.654 70.952 340.654 70.792V67.36C340.654 67.232 340.638 67.144 340.606 67.096C340.574 67.048 340.478 67.024 340.318 67.024H334.27C334.19 67.024 334.11 66.992 334.03 66.928C333.966 66.864 333.934 66.792 333.934 66.712V65.056C333.934 64.976 333.966 64.912 334.03 64.864C334.11 64.8 334.19 64.768 334.27 64.768H341.758C342.446 64.768 342.894 64.896 343.102 65.152C343.31 65.408 343.414 65.824 343.414 66.4V71.8C343.414 72.408 343.286 72.824 343.03 73.048C342.774 73.272 342.334 73.384 341.71 73.384H336.934C336.71 73.384 336.598 73.496 336.598 73.72V77.584C336.598 77.856 336.742 77.992 337.03 77.992C338.246 78.008 339.518 77.968 340.846 77.872C342.174 77.76 343.59 77.592 345.094 77.368C345.206 77.352 345.294 77.384 345.358 77.464C345.438 77.528 345.494 77.624 345.526 77.752L345.766 79.168ZM357.704 73.168C357.56 73.2 357.432 73.184 357.32 73.12C357.208 73.056 357.136 72.976 357.104 72.88L356.552 71.44C356.52 71.344 356.544 71.24 356.624 71.128C356.704 71.016 356.784 70.944 356.864 70.912C357.984 70.64 359.08 70.336 360.152 70C361.224 69.648 362.224 69.28 363.152 68.896C364.08 68.496 364.912 68.088 365.648 67.672C366.4 67.24 367.024 66.808 367.52 66.376C367.696 66.232 367.792 66.12 367.808 66.04C367.824 65.944 367.696 65.896 367.424 65.896H358.64C358.432 65.896 358.328 65.792 358.328 65.584V63.952C358.328 63.76 358.432 63.664 358.64 63.664H369.92C370.544 63.664 371.04 63.768 371.408 63.976C371.792 64.168 371.984 64.424 371.984 64.744C371.984 65 371.904 65.272 371.744 65.56C371.6 65.832 371.464 66.056 371.336 66.232C370.6 67.192 369.592 68.08 368.312 68.896C368.744 69.056 369.2 69.224 369.68 69.4C370.176 69.56 370.672 69.72 371.168 69.88C371.68 70.04 372.184 70.184 372.68 70.312C373.176 70.44 373.64 70.544 374.072 70.624C374.184 70.656 374.272 70.72 374.336 70.816C374.4 70.896 374.408 71 374.36 71.128L373.784 72.568C373.672 72.824 373.496 72.928 373.256 72.88C372.776 72.784 372.232 72.648 371.624 72.472C371.032 72.296 370.408 72.096 369.752 71.872C369.112 71.632 368.456 71.376 367.784 71.104C367.128 70.832 366.496 70.56 365.888 70.288C364.624 70.912 363.28 71.472 361.856 71.968C360.448 72.448 359.064 72.848 357.704 73.168ZM376.208 77.2C376.208 77.28 376.168 77.36 376.088 77.44C376.008 77.52 375.928 77.56 375.848 77.56H366.8V85.288C366.8 85.512 366.688 85.624 366.464 85.624H364.376C364.152 85.624 364.04 85.512 364.04 85.288V77.56H354.944C354.848 77.56 354.768 77.52 354.704 77.44C354.64 77.36 354.608 77.28 354.608 77.2V75.64C354.608 75.544 354.64 75.464 354.704 75.4C354.768 75.32 354.848 75.28 354.944 75.28H375.848C375.928 75.28 376.008 75.32 376.088 75.4C376.168 75.48 376.208 75.56 376.208 75.64V77.2ZM392.874 84.688C392.874 84.912 392.77 85.024 392.562 85.024H390.594C390.354 85.024 390.234 84.912 390.234 84.688V72.832H386.634C386.554 72.832 386.474 72.8 386.394 72.736C386.33 72.672 386.298 72.592 386.298 72.496V70.864C386.298 70.784 386.33 70.72 386.394 70.672C386.474 70.608 386.554 70.576 386.634 70.576H390.234V63.712C390.234 63.504 390.354 63.4 390.594 63.4H392.562C392.77 63.4 392.874 63.504 392.874 63.712V84.688ZM379.434 80.344C379.178 80.6 378.922 80.6 378.666 80.344L377.586 79.288C377.346 79.064 377.354 78.824 377.61 78.568C378.474 77.752 379.194 76.856 379.77 75.88C380.346 74.904 380.81 73.84 381.162 72.688C381.514 71.536 381.762 70.296 381.906 68.968C382.066 67.64 382.146 66.216 382.146 64.696C382.146 64.456 382.25 64.336 382.458 64.336L384.45 64.408C384.53 64.408 384.61 64.448 384.69 64.528C384.77 64.592 384.81 64.672 384.81 64.768C384.81 65.968 384.77 67.08 384.69 68.104C384.626 69.112 384.506 70.064 384.33 70.96C384.49 71.632 384.73 72.32 385.05 73.024C385.37 73.728 385.73 74.4 386.13 75.04C386.53 75.664 386.946 76.24 387.378 76.768C387.81 77.296 388.226 77.728 388.626 78.064C388.866 78.272 388.89 78.48 388.698 78.688L387.594 79.816C387.37 80.072 387.13 80.08 386.874 79.84C386.538 79.6 386.194 79.296 385.842 78.928C385.506 78.56 385.17 78.16 384.834 77.728C384.514 77.296 384.21 76.84 383.922 76.36C383.65 75.864 383.418 75.368 383.226 74.872C382.794 75.912 382.266 76.872 381.642 77.752C381.018 78.632 380.282 79.496 379.434 80.344ZM397.53 85.528C397.53 85.736 397.426 85.84 397.218 85.84H395.13C394.922 85.84 394.818 85.736 394.818 85.528V63.328C394.818 63.12 394.93 63.016 395.154 63.016H397.218C397.426 63.016 397.53 63.12 397.53 63.328V85.528ZM410.525 74.728C409.469 74.728 408.469 74.616 407.525 74.392C406.581 74.168 405.749 73.84 405.029 73.408C404.309 72.96 403.741 72.408 403.325 71.752C402.909 71.096 402.701 70.344 402.701 69.496C402.701 68.664 402.909 67.928 403.325 67.288C403.741 66.632 404.309 66.08 405.029 65.632C405.749 65.184 406.581 64.848 407.525 64.624C408.469 64.4 409.469 64.288 410.525 64.288C411.597 64.288 412.605 64.4 413.549 64.624C414.509 64.848 415.341 65.184 416.045 65.632C416.765 66.08 417.333 66.632 417.749 67.288C418.165 67.928 418.373 68.664 418.373 69.496C418.373 70.344 418.165 71.096 417.749 71.752C417.333 72.408 416.765 72.96 416.045 73.408C415.341 73.84 414.509 74.168 413.549 74.392C412.605 74.616 411.597 74.728 410.525 74.728ZM410.549 66.568C409.909 66.568 409.285 66.64 408.677 66.784C408.085 66.912 407.557 67.104 407.093 67.36C406.629 67.6 406.253 67.904 405.965 68.272C405.693 68.64 405.557 69.056 405.557 69.52C405.557 70 405.693 70.424 405.965 70.792C406.253 71.16 406.629 71.472 407.093 71.728C407.557 71.968 408.085 72.16 408.677 72.304C409.285 72.432 409.909 72.496 410.549 72.496C411.173 72.496 411.781 72.432 412.373 72.304C412.981 72.16 413.517 71.968 413.981 71.728C414.445 71.472 414.813 71.16 415.085 70.792C415.373 70.424 415.517 70 415.517 69.52C415.517 69.056 415.373 68.64 415.085 68.272C414.813 67.904 414.445 67.6 413.981 67.36C413.517 67.104 412.981 66.912 412.373 66.784C411.781 66.64 411.173 66.568 410.549 66.568ZM421.349 81.544C421.349 81.624 421.309 81.704 421.229 81.784C421.149 81.864 421.069 81.904 420.989 81.904H400.085C399.989 81.904 399.909 81.864 399.845 81.784C399.781 81.704 399.749 81.624 399.749 81.544V79.984C399.749 79.728 399.861 79.6 400.085 79.6H404.885V75.856C404.885 75.632 405.005 75.52 405.245 75.52H407.309C407.549 75.52 407.669 75.632 407.669 75.856V79.6H413.405V75.856C413.405 75.632 413.525 75.52 413.765 75.52H415.829C415.925 75.52 416.005 75.552 416.069 75.616C416.149 75.68 416.189 75.76 416.189 75.856V79.6H420.989C421.069 79.6 421.149 79.64 421.229 79.72C421.309 79.8 421.349 79.888 421.349 79.984V81.544ZM424.575 86.272C424.479 86.416 424.367 86.488 424.239 86.488H422.463C422.351 86.488 422.287 86.456 422.271 86.392C422.255 86.344 422.271 86.288 422.319 86.224C423.615 84.208 424.559 82.264 425.151 80.392C425.759 78.52 426.063 76.64 426.063 74.752C426.063 72.88 425.759 71.008 425.151 69.136C424.543 67.248 423.599 65.296 422.319 63.28C422.207 63.104 422.255 63.016 422.463 63.016H424.239C424.367 63.016 424.479 63.088 424.575 63.232C426.079 65.104 427.167 66.992 427.839 68.896C428.527 70.784 428.871 72.736 428.871 74.752C428.871 76.784 428.527 78.752 427.839 80.656C427.167 82.544 426.079 84.416 424.575 86.272Z" fill="white"/>
<defs>
<filter id="filter0_d_0_1" x="0" y="0" width="678" height="128" filterUnits="userSpaceOnUse" color-interpolation-filters="sRGB">
<feFlood flood-opacity="0" result="BackgroundImageFix"/>
<feColorMatrix in="SourceAlpha" type="matrix" values="0 0 0 0 0 0 0 0 0 0 0 0 0 0 0 0 0 0 127 0" result="hardAlpha"/>
<feOffset dy="4"/>
<feGaussianBlur stdDeviation="2"/>
<feComposite in2="hardAlpha" operator="out"/>
<feColorMatrix type="matrix" values="0 0 0 0 0 0 0 0 0 0 0 0 0 0 0 0 0 0 0.25 0"/>
<feBlend mode="normal" in2="BackgroundImageFix" result="effect1_dropShadow_0_1"/>
<feBlend mode="normal" in="SourceGraphic" in2="effect1_dropShadow_0_1" result="shape"/>
</filter>
</defs>
</svg>
