<svg width="20" height="19" viewBox="0 0 20 19" fill="none" xmlns="http://www.w3.org/2000/svg">
<path d="M16.0642 14.4658C19.0938 12.4043 19.378 8.75521 18.6894 7.69284C17.6647 6.11217 16.077 5.71467 14.3376 6.58281C13.5041 6.99883 13.1752 7.69513 13.0195 8.60026C13.0033 8.69418 12.906 10.1979 12.7998 10.1821C12.5981 10.1521 11.9251 8.56678 11.7673 8.34808C11.3398 7.75566 10.8336 6.9821 10.1526 6.68597C9.11925 6.23666 7.90465 6.2118 7.08778 7.06425C3.48002 10.8292 10.4066 16.4417 13.0193 17.9997" stroke="#9F9F9F" stroke-width="1.5" stroke-linecap="round"/>
<path d="M3.47591 4.77048C3.01308 4.28239 2.44823 3.72894 1.76571 3.50369C1.3223 3.35736 1.25763 3.50453 1.60851 3.8775C2.08384 4.38274 2.78837 4.7806 3.33431 5.23456C3.37566 5.26894 3.83892 5.72795 3.86903 5.71611C3.94429 5.68649 3.98372 5.39679 3.99681 5.35388C4.08387 5.06854 4.18126 4.78511 4.25838 4.4966C4.48287 3.65677 4.49637 2.76047 4.73334 1.92188C4.78397 1.74273 4.75076 2.00986 4.75088 2.03409C4.75278 2.42278 4.70328 2.76491 4.5969 3.13262C4.43705 3.68511 4.26122 4.23276 4.09343 4.78271" stroke="#9F9F9F" stroke-width="2" stroke-linecap="round"/>
</svg>
