<svg xmlns="http://www.w3.org/2000/svg" width="27" height="27" viewBox="0 0 27 27" fill="none">
<path d="M16.8095 9.08892H16.8205M14.0522 23.4272H6.88304C6.00549 23.4272 5.16388 23.0786 4.54335 22.458C3.92283 21.8375 3.57422 20.9959 3.57422 20.1183V6.88304C3.57422 6.00549 3.92283 5.16388 4.54335 4.54335C5.16388 3.92283 6.00549 3.57422 6.88304 3.57422H20.1183C20.9959 3.57422 21.8375 3.92283 22.458 4.54335C23.0786 5.16388 23.4272 6.00549 23.4272 6.88304V14.0522M3.57422 17.9124L9.08892 12.3977C10.1125 11.4128 11.3742 11.4128 12.3977 12.3977L16.258 16.258M15.7066 15.7066L16.8095 14.6036C17.5584 13.8834 18.4341 13.6893 19.2514 14.0235M21.2213 24.5301V17.9125M21.2213 17.9125L24.5301 21.2213M21.2213 17.9125L17.9125 21.2213" stroke="#717184" stroke-width="2" stroke-linecap="round" stroke-linejoin="round"/>
</svg>