<svg width="18" height="16" viewBox="0 0 18 16" fill="none" xmlns="http://www.w3.org/2000/svg">
<path d="M9.25 2.86511C8.51802 1.82761 6.93164 1 5.45064 1C4.31066 1 3.78415 3.81196 4.76517 3.99479C5.51933 4.13535 7.28708 3.53292 7.18189 4.5393C7.06868 5.62239 5.97784 6.48551 5.04293 7.1244" stroke="#9F9F9F" stroke-width="1.5" stroke-linecap="round"/>
<path d="M9.25 2.74983C9.98775 1.943 11.0711 1.26806 12.258 1.02842C13.2002 0.8382 13.2796 1.64323 13.48 2.23738C13.8698 3.39318 14.1287 4.89548 12.2204 4.85267C11.6146 4.83908 10.063 4.13185 10.3028 5.0665C10.4883 5.78943 11.7027 7.29474 12.258 7.78059" stroke="#9F9F9F" stroke-width="1.5" stroke-linecap="round"/>
<path d="M14.5061 5.28321C14.1944 5.01046 14.1628 4.53664 14.4355 4.2249C14.7083 3.91316 15.1821 3.88155 15.4939 4.15429L14.5061 5.28321ZM16.25 11.7181L15.549 11.451L15.5537 11.4395L16.25 11.7181ZM15.736 13.0671L16.4369 13.3341L15.736 13.0671ZM16.6846 10.6317L17.381 10.9102L16.6846 10.6317ZM15.4939 4.15429L15.8285 4.44706L14.8408 5.57597L14.5061 5.28321L15.4939 4.15429ZM17.381 10.9102L16.9463 11.9966L15.5537 11.4395L15.9883 10.3531L17.381 10.9102ZM16.9509 11.9851L16.4369 13.3341L15.0352 12.8001L15.5491 11.451L16.9509 11.9851ZM12.9326 15.749H7V14.249H12.9326V15.749ZM16.4369 13.3341C15.8829 14.7881 14.4886 15.749 12.9326 15.749V14.249C13.8662 14.249 14.7028 13.6725 15.0352 12.8001L16.4369 13.3341ZM15.8285 4.44706C17.6649 6.0538 18.2873 8.64467 17.381 10.9102L15.9883 10.3531C16.6581 8.67855 16.1982 6.76356 14.8408 5.57597L15.8285 4.44706Z" fill="#9F9F9F"/>
<path d="M3.49385 5.28321C3.80559 5.01046 3.8372 4.53664 3.56446 4.2249C3.29171 3.91316 2.81789 3.88155 2.50615 4.15429L3.49385 5.28321ZM1.75 11.7181L2.45095 11.451L2.44635 11.4395L1.75 11.7181ZM2.26396 13.0671L1.5631 13.3341L2.26396 13.0671ZM1.3154 10.6317L0.61905 10.9102L1.3154 10.6317ZM2.50615 4.15429L2.17153 4.44706L3.15923 5.57597L3.49385 5.28321L2.50615 4.15429ZM0.61905 10.9102L1.05365 11.9966L2.44635 11.4395L2.01175 10.3531L0.61905 10.9102ZM1.04914 11.9851L1.5631 13.3341L2.96481 12.8001L2.45086 11.451L1.04914 11.9851ZM5.06739 15.749H11V14.249H5.06739V15.749ZM1.5631 13.3341C2.11707 14.7881 3.51141 15.749 5.06739 15.749V14.249C4.1338 14.249 3.29719 13.6725 2.96481 12.8001L1.5631 13.3341ZM2.17153 4.44706C0.335071 6.0538 -0.287264 8.64467 0.61905 10.9102L2.01175 10.3531C1.34186 8.67855 1.80185 6.76356 3.15923 5.57597L2.17153 4.44706Z" fill="#9F9F9F"/>
</svg>
