<svg width="350" height="175" viewBox="0 0 350 175" fill="none" xmlns="http://www.w3.org/2000/svg">
<path d="M252.074 21.0781L213.102 21.0781L151.931 95.9226L190.982 95.9226L252.074 21.0781Z" fill="#EE8E0F"/>
<g filter="url(#filter0_d_887_4210)">
<path d="M9 79C9 76.2386 11.2386 74 14 74H334C336.761 74 339 76.2386 339 79V155H9V79Z" fill="white"/>
</g>
<rect x="102" y="88" width="144" height="8" rx="4" fill="#D9D9D9"/>
<mask id="mask0_887_4210" style="mask-type:alpha" maskUnits="userSpaceOnUse" x="102" y="88" width="144" height="8">
<rect x="102" y="88" width="144" height="8" rx="4" fill="#D9D9D9"/>
</mask>
<g mask="url(#mask0_887_4210)">
<path d="M252.074 21.0781L213.102 21.0781L151.931 95.9226L190.982 95.9226L252.074 21.0781Z" fill="#EE8E0F"/>
</g>
<path d="M91 21.0781L129.972 21.0781L191.144 95.9226L152.092 95.9226L91 21.0781Z" fill="#FF9A15"/>
<defs>
<filter id="filter0_d_887_4210" x="0" y="74" width="350" height="101" filterUnits="userSpaceOnUse" color-interpolation-filters="sRGB">
<feFlood flood-opacity="0" result="BackgroundImageFix"/>
<feColorMatrix in="SourceAlpha" type="matrix" values="0 0 0 0 0 0 0 0 0 0 0 0 0 0 0 0 0 0 127 0" result="hardAlpha"/>
<feOffset dx="1" dy="10"/>
<feGaussianBlur stdDeviation="5"/>
<feComposite in2="hardAlpha" operator="out"/>
<feColorMatrix type="matrix" values="0 0 0 0 0 0 0 0 0 0 0 0 0 0 0 0 0 0 0.2 0"/>
<feBlend mode="normal" in2="BackgroundImageFix" result="effect1_dropShadow_887_4210"/>
<feBlend mode="normal" in="SourceGraphic" in2="effect1_dropShadow_887_4210" result="shape"/>
</filter>
</defs>
</svg>
