<svg width="14" height="27" viewBox="0 0 14 27" fill="none" xmlns="http://www.w3.org/2000/svg">
<path id="Vector" d="M2.5 3.32529C4.5 3.32529 5 4.32529 5 6.32529M11 3.32529C9 3.32529 9 3.65829 9 6.32529M9 13.4081C9 14.681 8.95298 24.945 9 25.6747M4.44394 25.6747C4.49095 24.945 4.44394 13.8349 4.44394 12.8349M10.5 1C10.5 2.333 9.8318 3.33763 9.1648 4.00463M3.5 1C3.5 2.333 3.77694 3.33763 4.44394 4.00463M3.5 7.32529L1 7M10.5 7.32529L13 6.5M7 12.3253H7.01M7.01 14.5C6.01 14.5 3 12.3253 3 9.32529C3 7.32529 4.333 6.32529 7 6.32529C9.667 6.32529 11 7.32529 11 9.32529C11 12.3253 8.01 14.5 7.01 14.5Z" stroke="#717184" stroke-width="2" stroke-linecap="round" stroke-linejoin="round"/>
</svg>
