<svg width="14" height="14" viewBox="0 0 14 14" fill="none" xmlns="http://www.w3.org/2000/svg">
<path d="M8.16667 3.08576H7.66667C7.66667 3.30697 7.81202 3.50189 8.02404 3.56499L8.16667 3.08576ZM8.94291 3.40763L8.70466 3.84722C8.89923 3.95267 9.13998 3.91768 9.29647 3.76119L8.94291 3.40763ZM10.7123 3.28817L10.3587 3.64173L10.7123 3.28817ZM10.7123 4.93809L11.0658 5.29164L11.0658 5.29164L10.7123 4.93809ZM10.5927 5.05769L10.2391 4.70413C10.0827 4.8606 10.0477 5.1013 10.1531 5.29586L10.5927 5.05769ZM10.9142 5.83333L10.435 5.97596C10.4981 6.18798 10.693 6.33333 10.9142 6.33333V5.83333ZM11.0833 5.83333V5.33333V5.83333ZM10.9142 8.16667V7.66667C10.693 7.66667 10.4981 7.81202 10.435 8.02404L10.9142 8.16667ZM10.5927 8.94236L10.153 8.70418C10.0476 8.89874 10.0826 9.13944 10.2391 9.29591L10.5927 8.94236ZM9.06248 10.712L8.70893 11.0656V11.0656L9.06248 10.712ZM8.94287 10.5924L9.29642 10.2388C9.13993 10.0823 8.89919 10.0473 8.70462 10.1528L8.94287 10.5924ZM8.16667 10.9142L8.02404 10.435C7.81202 10.4981 7.66667 10.693 7.66667 10.9142H8.16667ZM5.83333 10.9142H6.33333C6.33333 10.693 6.18798 10.4981 5.97596 10.435L5.83333 10.9142ZM5.05769 10.5927L5.29586 10.1531C5.1013 10.0477 4.8606 10.0827 4.70413 10.2391L5.05769 10.5927ZM4.93758 10.7128L5.29114 11.0663H5.29114L4.93758 10.7128ZM3.28767 10.7128L2.93411 11.0663H2.93411L3.28767 10.7128ZM3.28767 9.06288L3.64122 9.41643H3.64122L3.28767 9.06288ZM3.40763 8.94291L3.76119 9.29647C3.91768 9.13998 3.95267 8.89923 3.84722 8.70466L3.40763 8.94291ZM3.08576 8.16667L3.56499 8.02404C3.50189 7.81202 3.30697 7.66667 3.08576 7.66667V8.16667ZM2.91667 5.83333V6.33333V5.83333ZM3.08576 5.83333V6.33333C3.30697 6.33333 3.50189 6.18798 3.56499 5.97596L3.08576 5.83333ZM3.40761 5.05713L3.8472 5.29538C3.95265 5.10081 3.91765 4.86007 3.76116 4.70358L3.40761 5.05713ZM3.28778 4.9373L2.93422 5.29085L2.93422 5.29085L3.28778 4.9373ZM3.28778 3.28738L3.64133 3.64094L3.64133 3.64094L3.28778 3.28738ZM4.93769 3.28738L4.58414 3.64094V3.64094L4.93769 3.28738ZM5.05764 3.40733L4.70409 3.76089C4.86056 3.91735 5.10126 3.95237 5.29582 3.84696L5.05764 3.40733ZM5.83333 3.08576L5.97596 3.56499C6.18798 3.50189 6.33333 3.30697 6.33333 3.08576H5.83333ZM7 1.25C6.07952 1.25 5.33333 1.99619 5.33333 2.91667H6.33333C6.33333 2.54848 6.63181 2.25 7 2.25V1.25ZM8.66667 2.91667C8.66667 1.99619 7.92048 1.25 7 1.25V2.25C7.36819 2.25 7.66667 2.54848 7.66667 2.91667H8.66667ZM8.66667 3.08576V2.91667H7.66667V3.08576H8.66667ZM9.18116 2.96805C8.90637 2.81911 8.61453 2.69738 8.30929 2.60654L8.02404 3.56499C8.26216 3.63586 8.48997 3.73086 8.70466 3.84722L9.18116 2.96805ZM8.70882 2.93462L8.58936 3.05408L9.29647 3.76119L9.41592 3.64173L8.70882 2.93462ZM11.0658 2.93462C10.415 2.28375 9.35969 2.28375 8.70882 2.93462L9.41592 3.64173C9.67627 3.38138 10.0984 3.38138 10.3587 3.64173L11.0658 2.93462ZM11.0658 5.29164C11.7167 4.64077 11.7167 3.58549 11.0658 2.93462L10.3587 3.64173C10.6191 3.90208 10.6191 4.32419 10.3587 4.58454L11.0658 5.29164ZM10.9462 5.41124L11.0658 5.29164L10.3587 4.58454L10.2391 4.70413L10.9462 5.41124ZM11.3935 5.69071C11.3027 5.38572 11.1811 5.09411 11.0323 4.81951L10.1531 5.29586C10.2693 5.5104 10.3642 5.73804 10.435 5.97596L11.3935 5.69071ZM10.9142 6.33333H11.0833V5.33333H10.9142V6.33333ZM11.0833 6.33333C11.4515 6.33333 11.75 6.63181 11.75 7H12.75C12.75 6.07952 12.0038 5.33333 11.0833 5.33333V6.33333ZM11.75 7C11.75 7.36819 11.4515 7.66667 11.0833 7.66667V8.66667C12.0038 8.66667 12.75 7.92048 12.75 7H11.75ZM11.0833 7.66667H10.9142V8.66667H11.0833V7.66667ZM11.0323 9.18054C11.1811 8.90593 11.3027 8.6143 11.3935 8.30929L10.435 8.02404C10.3642 8.26198 10.2693 8.48962 10.153 8.70418L11.0323 9.18054ZM11.0659 8.70853L10.9462 8.5888L10.2391 9.29591L10.3588 9.41564L11.0659 8.70853ZM11.0659 11.0656C11.7168 10.4147 11.7168 9.35941 11.0659 8.70853L10.3588 9.41564C10.6192 9.67599 10.6192 10.0981 10.3588 10.3584L11.0659 11.0656ZM8.70893 11.0656C9.3598 11.7164 10.4151 11.7164 11.0659 11.0656L10.3588 10.3584C10.0985 10.6188 9.67638 10.6188 9.41603 10.3584L8.70893 11.0656ZM8.58931 10.9459L8.70893 11.0656L9.41603 10.3584L9.29642 10.2388L8.58931 10.9459ZM8.30929 11.3935C8.61451 11.3026 8.90633 11.1809 9.18111 11.032L8.70462 10.1528C8.48994 10.2692 8.26214 10.3641 8.02404 10.435L8.30929 11.3935ZM8.66667 11.0833V10.9142H7.66667V11.0833H8.66667ZM7 12.75C7.92048 12.75 8.66667 12.0038 8.66667 11.0833H7.66667C7.66667 11.4515 7.36819 11.75 7 11.75V12.75ZM5.33333 11.0833C5.33333 12.0038 6.07952 12.75 7 12.75V11.75C6.63181 11.75 6.33333 11.4515 6.33333 11.0833H5.33333ZM5.33333 10.9142V11.0833H6.33333V10.9142H5.33333ZM4.81951 11.0323C5.09411 11.1811 5.38572 11.3027 5.69071 11.3935L5.97596 10.435C5.73804 10.3642 5.5104 10.2693 5.29586 10.1531L4.81951 11.0323ZM5.29114 11.0663L5.41124 10.9462L4.70413 10.2391L4.58403 10.3592L5.29114 11.0663ZM2.93411 11.0663C3.58499 11.7172 4.64026 11.7172 5.29114 11.0663L4.58403 10.3592C4.32368 10.6196 3.90157 10.6196 3.64122 10.3592L2.93411 11.0663ZM2.93411 8.70933C2.28324 9.3602 2.28324 10.4155 2.93411 11.0663L3.64122 10.3592C3.38087 10.0989 3.38087 9.67678 3.64122 9.41643L2.93411 8.70933ZM3.05408 8.58936L2.93411 8.70933L3.64122 9.41643L3.76119 9.29647L3.05408 8.58936ZM2.60654 8.30929C2.69738 8.61453 2.81911 8.90637 2.96805 9.18116L3.84722 8.70466C3.73086 8.48997 3.63586 8.26216 3.56499 8.02404L2.60654 8.30929ZM3.08576 7.66667H2.91667V8.66667H3.08576V7.66667ZM2.91667 7.66667C2.54848 7.66667 2.25 7.36819 2.25 7H1.25C1.25 7.92048 1.99619 8.66667 2.91667 8.66667V7.66667ZM2.25 7C2.25 6.63181 2.54848 6.33333 2.91667 6.33333V5.33333C1.99619 5.33333 1.25 6.07952 1.25 7H2.25ZM2.91667 6.33333H3.08576V5.33333H2.91667V6.33333ZM2.96802 4.81889C2.8191 5.09367 2.69737 5.38549 2.60654 5.69071L3.56499 5.97596C3.63585 5.73786 3.73085 5.51006 3.8472 5.29538L2.96802 4.81889ZM2.93422 5.29085L3.05406 5.41069L3.76116 4.70358L3.64133 4.58374L2.93422 5.29085ZM2.93422 2.93383C2.28335 3.5847 2.28335 4.63998 2.93422 5.29085L3.64133 4.58374C3.38098 4.3234 3.38098 3.90128 3.64133 3.64094L2.93422 2.93383ZM5.29124 2.93383C4.64037 2.28295 3.5851 2.28295 2.93422 2.93383L3.64133 3.64094C3.90168 3.38059 4.32379 3.38059 4.58414 3.64094L5.29124 2.93383ZM5.4112 3.05378L5.29124 2.93383L4.58414 3.64094L4.70409 3.76089L5.4112 3.05378ZM5.69071 2.60654C5.3857 2.69731 5.09407 2.81893 4.81946 2.96771L5.29582 3.84696C5.51038 3.73071 5.73802 3.6358 5.97596 3.56499L5.69071 2.60654ZM5.33333 2.91667V3.08576H6.33333V2.91667H5.33333Z" fill="#9999A7"/>
<circle cx="7" cy="7" r="1.75" stroke="#9999A7" stroke-linecap="round" stroke-linejoin="round"/>
</svg>
