<svg width="28" height="28" viewBox="0 0 28 28" fill="none" xmlns="http://www.w3.org/2000/svg">
<path d="M21 25.668C22.933 25.668 24.5 24.101 24.5 22.168C24.5 20.235 22.933 18.668 21 18.668C19.067 18.668 17.5 20.235 17.5 22.168C17.5 24.101 19.067 25.668 21 25.668Z" stroke="#D9D9D9" stroke-width="3.25" stroke-linecap="round" stroke-linejoin="round"/>
<path d="M7 17.5C8.933 17.5 10.5 15.933 10.5 14C10.5 12.067 8.933 10.5 7 10.5C5.067 10.5 3.5 12.067 3.5 14C3.5 15.933 5.067 17.5 7 17.5Z" stroke="#D9D9D9" stroke-width="3.25" stroke-linecap="round" stroke-linejoin="round"/>
<path d="M10.0215 15.7656L17.9898 20.409" stroke="#D9D9D9" stroke-width="3.25" stroke-linecap="round" stroke-linejoin="round"/>
<path d="M21 9.33203C22.933 9.33203 24.5 7.76503 24.5 5.83203C24.5 3.89903 22.933 2.33203 21 2.33203C19.067 2.33203 17.5 3.89903 17.5 5.83203C17.5 7.76503 19.067 9.33203 21 9.33203Z" stroke="#D9D9D9" stroke-width="3.25" stroke-linecap="round" stroke-linejoin="round"/>
<path d="M17.9781 7.59766L10.0215 12.241" stroke="#D9D9D9" stroke-width="3.25" stroke-linecap="round" stroke-linejoin="round"/>
</svg>
