<svg width="40" height="40" viewBox="0 0 40 40" fill="none" xmlns="http://www.w3.org/2000/svg">
<ellipse cx="20" cy="20" rx="20" ry="20" fill="#D9D9D9"/>
<path d="M29.4003 29.9906V27.5769C29.4003 26.2966 28.8917 25.0687 27.9864 24.1634C27.0811 23.2581 25.8532 22.7495 24.5729 22.7495H14.9182C13.6379 22.7495 12.41 23.2581 11.5047 24.1634C10.5994 25.0687 10.0908 26.2966 10.0908 27.5769V29.9906" stroke="#424242" stroke-width="1.99641" stroke-linecap="round" stroke-linejoin="round"/>
<path d="M19.7444 18.5371C22.4105 18.5371 24.5717 16.3758 24.5717 13.7097C24.5717 11.0436 22.4105 8.88232 19.7444 8.88232C17.0783 8.88232 14.917 11.0436 14.917 13.7097C14.917 16.3758 17.0783 18.5371 19.7444 18.5371Z" stroke="#424242" stroke-width="1.99641" stroke-linecap="round" stroke-linejoin="round"/>
</svg>
